<?xml version="1.0" encoding="utf-8"?>
<!-- Generator: Adobe Illustrator 19.1.0, SVG Export Plug-In . SVG Version: 6.00 Build 0)  -->
<svg version="1.1" id="Layer_1" xmlns="http://www.w3.org/2000/svg" xmlns:xlink="http://www.w3.org/1999/xlink" x="0px" y="0px"
	 viewBox="0 0 468.4 348.2" style="enable-background:new 0 0 468.4 348.2;" xml:space="preserve">
<style type="text/css">
	.st0{fill:#FFFFFF;stroke:#000000;stroke-width:2;stroke-miterlimit:10;}
	.st1{stroke:#000000;stroke-miterlimit:10;}
	.st2{fill:#CCCCCC;stroke:#000000;stroke-width:0.5;stroke-miterlimit:10;}
	.st3{fill:#54C6D5;stroke:#000000;stroke-width:0.5;stroke-miterlimit:10;}
	.st4{fill:#3F56A6;stroke:#000000;stroke-width:0.5;stroke-miterlimit:10;}
	.st5{fill:#F2EA18;stroke:#000000;stroke-width:0.5;stroke-miterlimit:10;}
</style>
<path id="Big_Frame" class="st0" d="M455.4,347.2H13c-6.6,0-12-5.4-12-12V13C1,6.4,6.4,1,13,1h442.4c6.6,0,12,5.4,12,12v322.2
	C467.4,341.8,462,347.2,455.4,347.2z"/>
<path id="Frame_1_x2C__CLOUDS" class="st1" d="M102.8,341.3H16.8c-6.6,0-12-5.4-12-12V16.9c0-6.6,5.4-12,12-12h86.1
	c6.6,0,12,5.4,12,12v312.4C114.8,335.9,109.4,341.3,102.8,341.3z"/>
<path id="_x30_0:00_Clouds" class="st2" d="M109.6,17.8H9.7c-1.6,0-2.9-1.3-2.9-2.9v0c0-1.6,1.3-2.9,2.9-2.9h99.9
	c1.6,0,2.9,1.3,2.9,2.9v0C112.5,16.5,111.2,17.8,109.6,17.8z"/>
<path id="_x30_0:30_Clouds" class="st2" d="M109.6,24.6H9.7c-1.6,0-2.9-1.3-2.9-2.9v0c0-1.6,1.3-2.9,2.9-2.9h99.9
	c1.6,0,2.9,1.3,2.9,2.9v0C112.5,23.3,111.2,24.6,109.6,24.6z"/>
<path id="_x30_1:00_Clouds" class="st2" d="M109.6,31.3H9.7c-1.6,0-2.9-1.3-2.9-2.9v0c0-1.6,1.3-2.9,2.9-2.9h99.9
	c1.6,0,2.9,1.3,2.9,2.9v0C112.5,30,111.2,31.3,109.6,31.3z"/>
<path id="_x30_1:30_Clouds" class="st2" d="M109.6,38H9.7c-1.6,0-2.9-1.3-2.9-2.9v0c0-1.6,1.3-2.9,2.9-2.9h99.9
	c1.6,0,2.9,1.3,2.9,2.9v0C112.5,36.8,111.2,38,109.6,38z"/>
<path id="_x30_2:00_Clouds" class="st2" d="M109.6,44.7H9.7c-1.6,0-2.9-1.3-2.9-2.9v0c0-1.6,1.3-2.9,2.9-2.9h99.9
	c1.6,0,2.9,1.3,2.9,2.9v0C112.5,43.4,111.2,44.7,109.6,44.7z"/>
<path id="_x30_2:30_Clouds" class="st2" d="M109.6,51.5H9.7c-1.6,0-2.9-1.3-2.9-2.9v0c0-1.6,1.3-2.9,2.9-2.9h99.9
	c1.6,0,2.9,1.3,2.9,2.9v0C112.5,50.2,111.2,51.5,109.6,51.5z"/>
<path id="_x30_3:00_Clouds" class="st2" d="M109.6,58.2H9.7c-1.6,0-2.9-1.3-2.9-2.9v0c0-1.6,1.3-2.9,2.9-2.9h99.9
	c1.6,0,2.9,1.3,2.9,2.9v0C112.5,56.9,111.2,58.2,109.6,58.2z"/>
<path id="_x30_3:30_Clouds" class="st2" d="M109.6,65H9.7c-1.6,0-2.9-1.3-2.9-2.9v0c0-1.6,1.3-2.9,2.9-2.9h99.9
	c1.6,0,2.9,1.3,2.9,2.9v0C112.5,63.7,111.2,65,109.6,65z"/>
<path id="_x30_4:00_Clouds" class="st2" d="M109.6,71.7H9.7c-1.6,0-2.9-1.3-2.9-2.9v0c0-1.6,1.3-2.9,2.9-2.9h99.9
	c1.6,0,2.9,1.3,2.9,2.9v0C112.5,70.4,111.2,71.7,109.6,71.7z"/>
<path id="_x30_4:30_Clouds" class="st2" d="M109.6,78.5H9.7c-1.6,0-2.9-1.3-2.9-2.9v0c0-1.6,1.3-2.9,2.9-2.9h99.9
	c1.6,0,2.9,1.3,2.9,2.9v0C112.5,77.2,111.2,78.5,109.6,78.5z"/>
<path id="_x30_5:00_Clouds" class="st2" d="M109.6,85.2H9.7c-1.6,0-2.9-1.3-2.9-2.9v0c0-1.6,1.3-2.9,2.9-2.9h99.9
	c1.6,0,2.9,1.3,2.9,2.9v0C112.5,83.9,111.2,85.2,109.6,85.2z"/>
<path id="_x30_5:30_Clouds" class="st2" d="M109.6,92H9.7c-1.6,0-2.9-1.3-2.9-2.9l0,0c0-1.6,1.3-2.9,2.9-2.9h99.9
	c1.6,0,2.9,1.3,2.9,2.9l0,0C112.5,90.7,111.2,92,109.6,92z"/>
<path id="_x30_6:00_Clouds" class="st2" d="M109.6,98.6H9.7c-1.6,0-2.9-1.3-2.9-2.9v0c0-1.6,1.3-2.9,2.9-2.9h99.9
	c1.6,0,2.9,1.3,2.9,2.9v0C112.5,97.3,111.2,98.6,109.6,98.6z"/>
<path id="_x30_6:30_Clouds" class="st2" d="M109.6,105.4H9.7c-1.6,0-2.9-1.3-2.9-2.9v0c0-1.6,1.3-2.9,2.9-2.9h99.9
	c1.6,0,2.9,1.3,2.9,2.9v0C112.5,104.1,111.2,105.4,109.6,105.4z"/>
<path id="_x30_7:00_Clouds" class="st2" d="M109.6,112.1H9.7c-1.6,0-2.9-1.3-2.9-2.9v0c0-1.6,1.3-2.9,2.9-2.9h99.9
	c1.6,0,2.9,1.3,2.9,2.9v0C112.5,110.8,111.2,112.1,109.6,112.1z"/>
<path id="_x30_7:30_Clouds" class="st2" d="M109.6,118.9H9.7c-1.6,0-2.9-1.3-2.9-2.9l0,0c0-1.6,1.3-2.9,2.9-2.9h99.9
	c1.6,0,2.9,1.3,2.9,2.9l0,0C112.5,117.6,111.2,118.9,109.6,118.9z"/>
<path id="_x30_8:00_Clouds" class="st2" d="M109.6,125.5H9.7c-1.6,0-2.9-1.3-2.9-2.9l0,0c0-1.6,1.3-2.9,2.9-2.9h99.9
	c1.6,0,2.9,1.3,2.9,2.9l0,0C112.5,124.2,111.2,125.5,109.6,125.5z"/>
<path id="_x30_8:30_Clouds" class="st2" d="M109.6,132.4H9.7c-1.6,0-2.9-1.3-2.9-2.9l0,0c0-1.6,1.3-2.9,2.9-2.9h99.9
	c1.6,0,2.9,1.3,2.9,2.9l0,0C112.5,131.1,111.2,132.4,109.6,132.4z"/>
<path id="_x30_9:00_Clouds" class="st2" d="M109.6,139H9.7c-1.6,0-2.9-1.3-2.9-2.9l0,0c0-1.6,1.3-2.9,2.9-2.9h99.9
	c1.6,0,2.9,1.3,2.9,2.9l0,0C112.5,137.7,111.2,139,109.6,139z"/>
<path id="_x30_9:30_Clouds" class="st2" d="M109.6,145.8H9.7c-1.6,0-2.9-1.3-2.9-2.9v0c0-1.6,1.3-2.9,2.9-2.9h99.9
	c1.6,0,2.9,1.3,2.9,2.9v0C112.5,144.5,111.2,145.8,109.6,145.8z"/>
<path id="_x31_0:00_Clouds" class="st2" d="M109.6,152.4H9.7c-1.6,0-2.9-1.3-2.9-2.9v0c0-1.6,1.3-2.9,2.9-2.9h99.9
	c1.6,0,2.9,1.3,2.9,2.9v0C112.5,151.1,111.2,152.4,109.6,152.4z"/>
<path id="_x31_0:30_Clouds" class="st2" d="M109.6,159.3H9.7c-1.6,0-2.9-1.3-2.9-2.9l0,0c0-1.6,1.3-2.9,2.9-2.9h99.9
	c1.6,0,2.9,1.3,2.9,2.9l0,0C112.5,158,111.2,159.3,109.6,159.3z"/>
<path id="_x31_1:00_Clouds" class="st2" d="M109.6,165.9H9.7c-1.6,0-2.9-1.3-2.9-2.9v0c0-1.6,1.3-2.9,2.9-2.9h99.9
	c1.6,0,2.9,1.3,2.9,2.9v0C112.5,164.6,111.2,165.9,109.6,165.9z"/>
<path id="_x31_1:30_Clouds" class="st2" d="M109.6,172.7H9.7c-1.6,0-2.9-1.3-2.9-2.9l0,0c0-1.6,1.3-2.9,2.9-2.9h99.9
	c1.6,0,2.9,1.3,2.9,2.9l0,0C112.5,171.4,111.2,172.7,109.6,172.7z"/>
<path id="_x31_2:00_Clouds" class="st2" d="M109.6,179.4H9.7c-1.6,0-2.9-1.3-2.9-2.9v0c0-1.6,1.3-2.9,2.9-2.9h99.9
	c1.6,0,2.9,1.3,2.9,2.9v0C112.5,178.1,111.2,179.4,109.6,179.4z"/>
<path id="_x31_2:30_Clouds" class="st2" d="M109.6,186.3H9.7c-1.6,0-2.9-1.3-2.9-2.9l0,0c0-1.6,1.3-2.9,2.9-2.9h99.9
	c1.6,0,2.9,1.3,2.9,2.9l0,0C112.5,185,111.2,186.3,109.6,186.3z"/>
<path id="_x31_3:00_Clouds" class="st2" d="M109.6,192.9H9.7c-1.6,0-2.9-1.3-2.9-2.9v0c0-1.6,1.3-2.9,2.9-2.9h99.9
	c1.6,0,2.9,1.3,2.9,2.9v0C112.5,191.6,111.2,192.9,109.6,192.9z"/>
<path id="_x31_3:30_Clouds" class="st2" d="M109.6,199.7H9.7c-1.6,0-2.9-1.3-2.9-2.9l0,0c0-1.6,1.3-2.9,2.9-2.9h99.9
	c1.6,0,2.9,1.3,2.9,2.9l0,0C112.5,198.4,111.2,199.7,109.6,199.7z"/>
<path id="_x31_4:00_Clouds" class="st2" d="M109.6,206.3H9.7c-1.6,0-2.9-1.3-2.9-2.9l0,0c0-1.6,1.3-2.9,2.9-2.9h99.9
	c1.6,0,2.9,1.3,2.9,2.9l0,0C112.5,205,111.2,206.3,109.6,206.3z"/>
<path id="_x31_4:30_Clouds" class="st2" d="M109.6,213.2H9.7c-1.6,0-2.9-1.3-2.9-2.9l0,0c0-1.6,1.3-2.9,2.9-2.9h99.9
	c1.6,0,2.9,1.3,2.9,2.9l0,0C112.5,211.9,111.2,213.2,109.6,213.2z"/>
<path id="_x31_5:00_Clouds" class="st2" d="M109.6,219.8H9.7c-1.6,0-2.9-1.3-2.9-2.9l0,0c0-1.6,1.3-2.9,2.9-2.9h99.9
	c1.6,0,2.9,1.3,2.9,2.9l0,0C112.5,218.5,111.2,219.8,109.6,219.8z"/>
<path id="_x31_5:30_Clouds" class="st2" d="M109.6,226.6H9.7c-1.6,0-2.9-1.3-2.9-2.9l0,0c0-1.6,1.3-2.9,2.9-2.9h99.9
	c1.6,0,2.9,1.3,2.9,2.9l0,0C112.5,225.3,111.2,226.6,109.6,226.6z"/>
<path id="_x31_6:00_Clouds" class="st2" d="M109.6,233.5H9.7c-1.6,0-2.9-1.3-2.9-2.9l0,0c0-1.6,1.3-2.9,2.9-2.9h99.9
	c1.6,0,2.9,1.3,2.9,2.9l0,0C112.5,232.2,111.2,233.5,109.6,233.5z"/>
<path id="_x31_6:30_Clouds" class="st2" d="M109.6,240.3H9.7c-1.6,0-2.9-1.3-2.9-2.9l0,0c0-1.6,1.3-2.9,2.9-2.9h99.9
	c1.6,0,2.9,1.3,2.9,2.9l0,0C112.5,239,111.2,240.3,109.6,240.3z"/>
<path id="_x31_7:00_Clouds" class="st2" d="M109.6,246.9H9.7c-1.6,0-2.9-1.3-2.9-2.9l0,0c0-1.6,1.3-2.9,2.9-2.9h99.9
	c1.6,0,2.9,1.3,2.9,2.9l0,0C112.5,245.6,111.2,246.9,109.6,246.9z"/>
<path id="_x31_7:30_Clouds" class="st2" d="M109.6,253.7H9.7c-1.6,0-2.9-1.3-2.9-2.9v0c0-1.6,1.3-2.9,2.9-2.9h99.9
	c1.6,0,2.9,1.3,2.9,2.9v0C112.5,252.4,111.2,253.7,109.6,253.7z"/>
<path id="_x31_8:00_Clouds" class="st2" d="M109.6,260.4H9.7c-1.6,0-2.9-1.3-2.9-2.9l0,0c0-1.6,1.3-2.9,2.9-2.9h99.9
	c1.6,0,2.9,1.3,2.9,2.9l0,0C112.5,259.1,111.2,260.4,109.6,260.4z"/>
<path id="_x31_8:30_Clouds" class="st2" d="M109.6,267.2H9.7c-1.6,0-2.9-1.3-2.9-2.9l0,0c0-1.6,1.3-2.9,2.9-2.9h99.9
	c1.6,0,2.9,1.3,2.9,2.9l0,0C112.5,265.9,111.2,267.2,109.6,267.2z"/>
<path id="_x31_9:00_Clouds" class="st2" d="M109.6,273.8H9.7c-1.6,0-2.9-1.3-2.9-2.9l0,0c0-1.6,1.3-2.9,2.9-2.9h99.9
	c1.6,0,2.9,1.3,2.9,2.9l0,0C112.5,272.5,111.2,273.8,109.6,273.8z"/>
<path id="_x31_9:30_Clouds" class="st2" d="M109.6,280.6H9.7c-1.6,0-2.9-1.3-2.9-2.9v0c0-1.6,1.3-2.9,2.9-2.9h99.9
	c1.6,0,2.9,1.3,2.9,2.9v0C112.5,279.3,111.2,280.6,109.6,280.6z"/>
<path id="_x32_0:00_Clouds" class="st2" d="M109.6,287.4H9.7c-1.6,0-2.9-1.3-2.9-2.9l0,0c0-1.6,1.3-2.9,2.9-2.9h99.9
	c1.6,0,2.9,1.3,2.9,2.9l0,0C112.5,286.1,111.2,287.4,109.6,287.4z"/>
<path id="_x32_0:30_Clouds" class="st2" d="M109.6,294.2H9.7c-1.6,0-2.9-1.3-2.9-2.9l0,0c0-1.6,1.3-2.9,2.9-2.9h99.9
	c1.6,0,2.9,1.3,2.9,2.9l0,0C112.5,292.9,111.2,294.2,109.6,294.2z"/>
<path id="_x32_1:00_Clouds" class="st2" d="M109.6,300.8H9.7c-1.6,0-2.9-1.3-2.9-2.9l0,0c0-1.6,1.3-2.9,2.9-2.9h99.9
	c1.6,0,2.9,1.3,2.9,2.9l0,0C112.5,299.5,111.2,300.8,109.6,300.8z"/>
<path id="_x32_1:30_Clouds" class="st2" d="M109.6,307.6H9.7c-1.6,0-2.9-1.3-2.9-2.9l0,0c0-1.6,1.3-2.9,2.9-2.9h99.9
	c1.6,0,2.9,1.3,2.9,2.9l0,0C112.5,306.3,111.2,307.6,109.6,307.6z"/>
<path id="_x32_2:00_Clouds" class="st2" d="M109.6,314.3H9.7c-1.6,0-2.9-1.3-2.9-2.9v0c0-1.6,1.3-2.9,2.9-2.9h99.9
	c1.6,0,2.9,1.3,2.9,2.9v0C112.5,313,111.2,314.3,109.6,314.3z"/>
<path id="_x32_2:30_Clouds" class="st2" d="M109.6,321.1H9.7c-1.6,0-2.9-1.3-2.9-2.9l0,0c0-1.6,1.3-2.9,2.9-2.9h99.9
	c1.6,0,2.9,1.3,2.9,2.9l0,0C112.5,319.8,111.2,321.1,109.6,321.1z"/>
<path id="_x32_3:00_Clouds" class="st2" d="M109.6,327.7H9.7c-1.6,0-2.9-1.3-2.9-2.9v0c0-1.6,1.3-2.9,2.9-2.9h99.9
	c1.6,0,2.9,1.3,2.9,2.9v0C112.5,326.4,111.2,327.7,109.6,327.7z"/>
<path id="_x32_3:30_Clouds" class="st2" d="M109.6,334.5H9.7c-1.6,0-2.9-1.3-2.9-2.9l0,0c0-1.6,1.3-2.9,2.9-2.9h99.9
	c1.6,0,2.9,1.3,2.9,2.9l0,0C112.5,333.2,111.2,334.5,109.6,334.5z"/>
<path id="Frame_2_WATER" class="st1" d="M218.9,341.3h-86.1c-6.6,0-12-5.4-12-12V16.9c0-6.6,5.4-12,12-12h86.1c6.6,0,12,5.4,12,12
	v312.4C230.9,335.9,225.5,341.3,218.9,341.3z"/>
<path id="_x30_0:00_Water" class="st3" d="M225.6,17.8h-99.9c-1.6,0-2.9-1.3-2.9-2.9v0c0-1.6,1.3-2.9,2.9-2.9h99.9
	c1.6,0,2.9,1.3,2.9,2.9v0C228.5,16.5,227.2,17.8,225.6,17.8z"/>
<path id="_x30_0:30_Water" class="st3" d="M225.6,24.6h-99.9c-1.6,0-2.9-1.3-2.9-2.9v0c0-1.6,1.3-2.9,2.9-2.9h99.9
	c1.6,0,2.9,1.3,2.9,2.9v0C228.5,23.3,227.2,24.6,225.6,24.6z"/>
<path id="_x30_1:00_Water" class="st3" d="M225.6,31.3h-99.9c-1.6,0-2.9-1.3-2.9-2.9v0c0-1.6,1.3-2.9,2.9-2.9h99.9
	c1.6,0,2.9,1.3,2.9,2.9v0C228.5,30,227.2,31.3,225.6,31.3z"/>
<path id="_x30_1:30_Water" class="st3" d="M225.6,38h-99.9c-1.6,0-2.9-1.3-2.9-2.9v0c0-1.6,1.3-2.9,2.9-2.9h99.9
	c1.6,0,2.9,1.3,2.9,2.9v0C228.5,36.8,227.2,38,225.6,38z"/>
<path id="_x30_2:00_Water" class="st3" d="M225.6,44.7h-99.9c-1.6,0-2.9-1.3-2.9-2.9v0c0-1.6,1.3-2.9,2.9-2.9h99.9
	c1.6,0,2.9,1.3,2.9,2.9v0C228.5,43.4,227.2,44.7,225.6,44.7z"/>
<path id="_x30_2:30_Water" class="st3" d="M225.6,51.5h-99.9c-1.6,0-2.9-1.3-2.9-2.9v0c0-1.6,1.3-2.9,2.9-2.9h99.9
	c1.6,0,2.9,1.3,2.9,2.9v0C228.5,50.2,227.2,51.5,225.6,51.5z"/>
<path id="_x30_3:00_Water" class="st3" d="M225.6,58.2h-99.9c-1.6,0-2.9-1.3-2.9-2.9v0c0-1.6,1.3-2.9,2.9-2.9h99.9
	c1.6,0,2.9,1.3,2.9,2.9v0C228.5,56.9,227.2,58.2,225.6,58.2z"/>
<path id="_x30_3:30_Water" class="st3" d="M225.6,65h-99.9c-1.6,0-2.9-1.3-2.9-2.9v0c0-1.6,1.3-2.9,2.9-2.9h99.9
	c1.6,0,2.9,1.3,2.9,2.9v0C228.5,63.7,227.2,65,225.6,65z"/>
<path id="_x30_4:00_Water" class="st3" d="M225.6,71.7h-99.9c-1.6,0-2.9-1.3-2.9-2.9v0c0-1.6,1.3-2.9,2.9-2.9h99.9
	c1.6,0,2.9,1.3,2.9,2.9v0C228.5,70.4,227.2,71.7,225.6,71.7z"/>
<path id="_x30_4:30_Water" class="st3" d="M225.6,78.5h-99.9c-1.6,0-2.9-1.3-2.9-2.9v0c0-1.6,1.3-2.9,2.9-2.9h99.9
	c1.6,0,2.9,1.3,2.9,2.9v0C228.5,77.2,227.2,78.5,225.6,78.5z"/>
<path id="_x30_5:00_Water" class="st3" d="M225.6,85.2h-99.9c-1.6,0-2.9-1.3-2.9-2.9v0c0-1.6,1.3-2.9,2.9-2.9h99.9
	c1.6,0,2.9,1.3,2.9,2.9v0C228.5,83.9,227.2,85.2,225.6,85.2z"/>
<path id="_x30_5:30_Water" class="st3" d="M225.6,92h-99.9c-1.6,0-2.9-1.3-2.9-2.9l0,0c0-1.6,1.3-2.9,2.9-2.9h99.9
	c1.6,0,2.9,1.3,2.9,2.9l0,0C228.5,90.7,227.2,92,225.6,92z"/>
<path id="_x30_6:00_Water" class="st3" d="M225.6,98.6h-99.9c-1.6,0-2.9-1.3-2.9-2.9v0c0-1.6,1.3-2.9,2.9-2.9h99.9
	c1.6,0,2.9,1.3,2.9,2.9v0C228.5,97.3,227.2,98.6,225.6,98.6z"/>
<path id="_x30_6:30_Water" class="st3" d="M225.6,105.4h-99.9c-1.6,0-2.9-1.3-2.9-2.9v0c0-1.6,1.3-2.9,2.9-2.9h99.9
	c1.6,0,2.9,1.3,2.9,2.9v0C228.5,104.1,227.2,105.4,225.6,105.4z"/>
<path id="_x30_7:00_Water" class="st3" d="M225.6,112.1h-99.9c-1.6,0-2.9-1.3-2.9-2.9v0c0-1.6,1.3-2.9,2.9-2.9h99.9
	c1.6,0,2.9,1.3,2.9,2.9v0C228.5,110.8,227.2,112.1,225.6,112.1z"/>
<path id="_x30_7:30_Water" class="st3" d="M225.6,118.9h-99.9c-1.6,0-2.9-1.3-2.9-2.9l0,0c0-1.6,1.3-2.9,2.9-2.9h99.9
	c1.6,0,2.9,1.3,2.9,2.9l0,0C228.5,117.6,227.2,118.9,225.6,118.9z"/>
<path id="_x30_8:00_Water" class="st3" d="M225.6,125.5h-99.9c-1.6,0-2.9-1.3-2.9-2.9l0,0c0-1.6,1.3-2.9,2.9-2.9h99.9
	c1.6,0,2.9,1.3,2.9,2.9l0,0C228.5,124.2,227.2,125.5,225.6,125.5z"/>
<path id="_x30_8:30_Water" class="st3" d="M225.6,132.4h-99.9c-1.6,0-2.9-1.3-2.9-2.9l0,0c0-1.6,1.3-2.9,2.9-2.9h99.9
	c1.6,0,2.9,1.3,2.9,2.9l0,0C228.5,131.1,227.2,132.4,225.6,132.4z"/>
<path id="_x30_9:00_Water" class="st3" d="M225.6,139h-99.9c-1.6,0-2.9-1.3-2.9-2.9l0,0c0-1.6,1.3-2.9,2.9-2.9h99.9
	c1.6,0,2.9,1.3,2.9,2.9l0,0C228.5,137.7,227.2,139,225.6,139z"/>
<path id="_x30_9:30_Water" class="st3" d="M225.6,145.8h-99.9c-1.6,0-2.9-1.3-2.9-2.9v0c0-1.6,1.3-2.9,2.9-2.9h99.9
	c1.6,0,2.9,1.3,2.9,2.9v0C228.5,144.5,227.2,145.8,225.6,145.8z"/>
<path id="_x31_0:00_Water" class="st3" d="M225.6,152.4h-99.9c-1.6,0-2.9-1.3-2.9-2.9v0c0-1.6,1.3-2.9,2.9-2.9h99.9
	c1.6,0,2.9,1.3,2.9,2.9v0C228.5,151.1,227.2,152.4,225.6,152.4z"/>
<path id="_x31_0:30_Water" class="st3" d="M225.6,159.3h-99.9c-1.6,0-2.9-1.3-2.9-2.9l0,0c0-1.6,1.3-2.9,2.9-2.9h99.9
	c1.6,0,2.9,1.3,2.9,2.9l0,0C228.5,158,227.2,159.3,225.6,159.3z"/>
<path id="_x31_1:00_Water" class="st3" d="M225.6,165.9h-99.9c-1.6,0-2.9-1.3-2.9-2.9v0c0-1.6,1.3-2.9,2.9-2.9h99.9
	c1.6,0,2.9,1.3,2.9,2.9v0C228.5,164.6,227.2,165.9,225.6,165.9z"/>
<path id="_x31_1:30_Water" class="st3" d="M225.6,172.7h-99.9c-1.6,0-2.9-1.3-2.9-2.9l0,0c0-1.6,1.3-2.9,2.9-2.9h99.9
	c1.6,0,2.9,1.3,2.9,2.9l0,0C228.5,171.4,227.2,172.7,225.6,172.7z"/>
<path id="_x31_2:00_Water" class="st3" d="M225.6,179.4h-99.9c-1.6,0-2.9-1.3-2.9-2.9v0c0-1.6,1.3-2.9,2.9-2.9h99.9
	c1.6,0,2.9,1.3,2.9,2.9v0C228.5,178.1,227.2,179.4,225.6,179.4z"/>
<path id="_x31_2:30_Water" class="st3" d="M225.6,186.3h-99.9c-1.6,0-2.9-1.3-2.9-2.9l0,0c0-1.6,1.3-2.9,2.9-2.9h99.9
	c1.6,0,2.9,1.3,2.9,2.9l0,0C228.5,185,227.2,186.3,225.6,186.3z"/>
<path id="_x31_3:00_Water" class="st3" d="M225.6,192.9h-99.9c-1.6,0-2.9-1.3-2.9-2.9v0c0-1.6,1.3-2.9,2.9-2.9h99.9
	c1.6,0,2.9,1.3,2.9,2.9v0C228.5,191.6,227.2,192.9,225.6,192.9z"/>
<path id="_x31_3:30_Water" class="st3" d="M225.6,199.7h-99.9c-1.6,0-2.9-1.3-2.9-2.9l0,0c0-1.6,1.3-2.9,2.9-2.9h99.9
	c1.6,0,2.9,1.3,2.9,2.9l0,0C228.5,198.4,227.2,199.7,225.6,199.7z"/>
<path id="_x31_4:00_Water" class="st3" d="M225.6,206.3h-99.9c-1.6,0-2.9-1.3-2.9-2.9l0,0c0-1.6,1.3-2.9,2.9-2.9h99.9
	c1.6,0,2.9,1.3,2.9,2.9l0,0C228.5,205,227.2,206.3,225.6,206.3z"/>
<path id="_x31_4:30_Water" class="st3" d="M225.6,213.2h-99.9c-1.6,0-2.9-1.3-2.9-2.9l0,0c0-1.6,1.3-2.9,2.9-2.9h99.9
	c1.6,0,2.9,1.3,2.9,2.9l0,0C228.5,211.9,227.2,213.2,225.6,213.2z"/>
<path id="_x31_5:00_Water" class="st3" d="M225.6,219.8h-99.9c-1.6,0-2.9-1.3-2.9-2.9l0,0c0-1.6,1.3-2.9,2.9-2.9h99.9
	c1.6,0,2.9,1.3,2.9,2.9l0,0C228.5,218.5,227.2,219.8,225.6,219.8z"/>
<path id="_x31_5:30_Water" class="st3" d="M225.6,226.6h-99.9c-1.6,0-2.9-1.3-2.9-2.9l0,0c0-1.6,1.3-2.9,2.9-2.9h99.9
	c1.6,0,2.9,1.3,2.9,2.9l0,0C228.5,225.3,227.2,226.6,225.6,226.6z"/>
<path id="_x31_6:00_Water" class="st3" d="M225.6,233.5h-99.9c-1.6,0-2.9-1.3-2.9-2.9l0,0c0-1.6,1.3-2.9,2.9-2.9h99.9
	c1.6,0,2.9,1.3,2.9,2.9l0,0C228.5,232.2,227.2,233.5,225.6,233.5z"/>
<path id="_x31_6:30_Water" class="st3" d="M225.6,240.3h-99.9c-1.6,0-2.9-1.3-2.9-2.9l0,0c0-1.6,1.3-2.9,2.9-2.9h99.9
	c1.6,0,2.9,1.3,2.9,2.9l0,0C228.5,239,227.2,240.3,225.6,240.3z"/>
<path id="_x31_7:00_Water" class="st3" d="M225.6,246.9h-99.9c-1.6,0-2.9-1.3-2.9-2.9l0,0c0-1.6,1.3-2.9,2.9-2.9h99.9
	c1.6,0,2.9,1.3,2.9,2.9l0,0C228.5,245.6,227.2,246.9,225.6,246.9z"/>
<path id="_x31_7:30_Water" class="st3" d="M225.6,253.7h-99.9c-1.6,0-2.9-1.3-2.9-2.9v0c0-1.6,1.3-2.9,2.9-2.9h99.9
	c1.6,0,2.9,1.3,2.9,2.9v0C228.5,252.4,227.2,253.7,225.6,253.7z"/>
<path id="_x31_8:00_Water" class="st3" d="M225.6,260.4h-99.9c-1.6,0-2.9-1.3-2.9-2.9l0,0c0-1.6,1.3-2.9,2.9-2.9h99.9
	c1.6,0,2.9,1.3,2.9,2.9l0,0C228.5,259.1,227.2,260.4,225.6,260.4z"/>
<path id="_x31_8:30_Water" class="st3" d="M225.6,267.2h-99.9c-1.6,0-2.9-1.3-2.9-2.9l0,0c0-1.6,1.3-2.9,2.9-2.9h99.9
	c1.6,0,2.9,1.3,2.9,2.9l0,0C228.5,265.9,227.2,267.2,225.6,267.2z"/>
<path id="_x31_9:00_Water" class="st3" d="M225.6,273.8h-99.9c-1.6,0-2.9-1.3-2.9-2.9l0,0c0-1.6,1.3-2.9,2.9-2.9h99.9
	c1.6,0,2.9,1.3,2.9,2.9l0,0C228.5,272.5,227.2,273.8,225.6,273.8z"/>
<path id="_x31_9:30_Water" class="st3" d="M225.6,280.6h-99.9c-1.6,0-2.9-1.3-2.9-2.9v0c0-1.6,1.3-2.9,2.9-2.9h99.9
	c1.6,0,2.9,1.3,2.9,2.9v0C228.5,279.3,227.2,280.6,225.6,280.6z"/>
<path id="_x32_0:00_Water" class="st3" d="M225.6,287.4h-99.9c-1.6,0-2.9-1.3-2.9-2.9l0,0c0-1.6,1.3-2.9,2.9-2.9h99.9
	c1.6,0,2.9,1.3,2.9,2.9l0,0C228.5,286.1,227.2,287.4,225.6,287.4z"/>
<path id="_x32_0:30_Water" class="st3" d="M225.6,294.2h-99.9c-1.6,0-2.9-1.3-2.9-2.9l0,0c0-1.6,1.3-2.9,2.9-2.9h99.9
	c1.6,0,2.9,1.3,2.9,2.9l0,0C228.5,292.9,227.2,294.2,225.6,294.2z"/>
<path id="_x32_1:00_Water" class="st3" d="M225.6,300.8h-99.9c-1.6,0-2.9-1.3-2.9-2.9l0,0c0-1.6,1.3-2.9,2.9-2.9h99.9
	c1.6,0,2.9,1.3,2.9,2.9l0,0C228.5,299.5,227.2,300.8,225.6,300.8z"/>
<path id="_x32_1:30_Water" class="st3" d="M225.6,307.6h-99.9c-1.6,0-2.9-1.3-2.9-2.9l0,0c0-1.6,1.3-2.9,2.9-2.9h99.9
	c1.6,0,2.9,1.3,2.9,2.9l0,0C228.5,306.3,227.2,307.6,225.6,307.6z"/>
<path id="_x32_2:00_Water" class="st3" d="M225.6,314.3h-99.9c-1.6,0-2.9-1.3-2.9-2.9v0c0-1.6,1.3-2.9,2.9-2.9h99.9
	c1.6,0,2.9,1.3,2.9,2.9v0C228.5,313,227.2,314.3,225.6,314.3z"/>
<path id="_x32_2:30_Water" class="st3" d="M225.6,321.1h-99.9c-1.6,0-2.9-1.3-2.9-2.9l0,0c0-1.6,1.3-2.9,2.9-2.9h99.9
	c1.6,0,2.9,1.3,2.9,2.9l0,0C228.5,319.8,227.2,321.1,225.6,321.1z"/>
<path id="_x32_3:00_Water" class="st3" d="M225.6,327.7h-99.9c-1.6,0-2.9-1.3-2.9-2.9v0c0-1.6,1.3-2.9,2.9-2.9h99.9
	c1.6,0,2.9,1.3,2.9,2.9v0C228.5,326.4,227.2,327.7,225.6,327.7z"/>
<path id="_x32_3:30_Water" class="st3" d="M225.6,334.5h-99.9c-1.6,0-2.9-1.3-2.9-2.9l0,0c0-1.6,1.3-2.9,2.9-2.9h99.9
	c1.6,0,2.9,1.3,2.9,2.9l0,0C228.5,333.2,227.2,334.5,225.6,334.5z"/>
<path id="FRAME_3_x2C__NIGHT" class="st1" d="M334.8,341.3h-86.1c-6.6,0-12-5.4-12-12V16.9c0-6.6,5.4-12,12-12h86.1
	c6.6,0,12,5.4,12,12v312.4C346.8,335.9,341.4,341.3,334.8,341.3z"/>
<path id="_x30_0:00_Night" class="st4" d="M341.6,17.8h-99.9c-1.6,0-2.9-1.3-2.9-2.9v0c0-1.6,1.3-2.9,2.9-2.9h99.9
	c1.6,0,2.9,1.3,2.9,2.9v0C344.4,16.5,343.1,17.8,341.6,17.8z"/>
<path id="_x30_0:30_Night" class="st4" d="M341.6,24.6h-99.9c-1.6,0-2.9-1.3-2.9-2.9v0c0-1.6,1.3-2.9,2.9-2.9h99.9
	c1.6,0,2.9,1.3,2.9,2.9v0C344.4,23.3,343.1,24.6,341.6,24.6z"/>
<path id="_x30_1:00_Night" class="st4" d="M341.6,31.3h-99.9c-1.6,0-2.9-1.3-2.9-2.9v0c0-1.6,1.3-2.9,2.9-2.9h99.9
	c1.6,0,2.9,1.3,2.9,2.9v0C344.4,30,343.1,31.3,341.6,31.3z"/>
<path id="_x30_1:30_Night" class="st4" d="M341.6,38h-99.9c-1.6,0-2.9-1.3-2.9-2.9v0c0-1.6,1.3-2.9,2.9-2.9h99.9
	c1.6,0,2.9,1.3,2.9,2.9v0C344.4,36.8,343.1,38,341.6,38z"/>
<path id="_x30_2:00_Night" class="st4" d="M341.6,44.7h-99.9c-1.6,0-2.9-1.3-2.9-2.9v0c0-1.6,1.3-2.9,2.9-2.9h99.9
	c1.6,0,2.9,1.3,2.9,2.9v0C344.4,43.4,343.1,44.7,341.6,44.7z"/>
<path id="_x30_2:30_Night" class="st4" d="M341.6,51.5h-99.9c-1.6,0-2.9-1.3-2.9-2.9v0c0-1.6,1.3-2.9,2.9-2.9h99.9
	c1.6,0,2.9,1.3,2.9,2.9v0C344.4,50.2,343.1,51.5,341.6,51.5z"/>
<path id="_x30_3:00_Night" class="st4" d="M341.6,58.2h-99.9c-1.6,0-2.9-1.3-2.9-2.9v0c0-1.6,1.3-2.9,2.9-2.9h99.9
	c1.6,0,2.9,1.3,2.9,2.9v0C344.4,56.9,343.1,58.2,341.6,58.2z"/>
<path id="_x30_3:30_Night" class="st4" d="M341.6,65h-99.9c-1.6,0-2.9-1.3-2.9-2.9v0c0-1.6,1.3-2.9,2.9-2.9h99.9
	c1.6,0,2.9,1.3,2.9,2.9v0C344.4,63.7,343.1,65,341.6,65z"/>
<path id="_x30_4:00_Night" class="st4" d="M341.6,71.7h-99.9c-1.6,0-2.9-1.3-2.9-2.9v0c0-1.6,1.3-2.9,2.9-2.9h99.9
	c1.6,0,2.9,1.3,2.9,2.9v0C344.4,70.4,343.1,71.7,341.6,71.7z"/>
<path id="_x30_4:30_Night" class="st4" d="M341.6,78.5h-99.9c-1.6,0-2.9-1.3-2.9-2.9v0c0-1.6,1.3-2.9,2.9-2.9h99.9
	c1.6,0,2.9,1.3,2.9,2.9v0C344.4,77.2,343.1,78.5,341.6,78.5z"/>
<path id="_x30_5:00_Night" class="st4" d="M341.6,85.2h-99.9c-1.6,0-2.9-1.3-2.9-2.9v0c0-1.6,1.3-2.9,2.9-2.9h99.9
	c1.6,0,2.9,1.3,2.9,2.9v0C344.4,83.9,343.1,85.2,341.6,85.2z"/>
<path id="_x30_5:30_Night" class="st4" d="M341.6,92h-99.9c-1.6,0-2.9-1.3-2.9-2.9l0,0c0-1.6,1.3-2.9,2.9-2.9h99.9
	c1.6,0,2.9,1.3,2.9,2.9l0,0C344.4,90.7,343.1,92,341.6,92z"/>
<path id="_x30_6:00_Night" class="st4" d="M341.6,98.6h-99.9c-1.6,0-2.9-1.3-2.9-2.9v0c0-1.6,1.3-2.9,2.9-2.9h99.9
	c1.6,0,2.9,1.3,2.9,2.9v0C344.4,97.3,343.1,98.6,341.6,98.6z"/>
<path id="_x30_6:30_Night" class="st4" d="M341.6,105.4h-99.9c-1.6,0-2.9-1.3-2.9-2.9v0c0-1.6,1.3-2.9,2.9-2.9h99.9
	c1.6,0,2.9,1.3,2.9,2.9v0C344.4,104.1,343.1,105.4,341.6,105.4z"/>
<path id="_x30_7:00_Night" class="st4" d="M341.6,112.1h-99.9c-1.6,0-2.9-1.3-2.9-2.9v0c0-1.6,1.3-2.9,2.9-2.9h99.9
	c1.6,0,2.9,1.3,2.9,2.9v0C344.4,110.8,343.1,112.1,341.6,112.1z"/>
<path id="_x30_7:30_Night" class="st4" d="M341.6,118.9h-99.9c-1.6,0-2.9-1.3-2.9-2.9l0,0c0-1.6,1.3-2.9,2.9-2.9h99.9
	c1.6,0,2.9,1.3,2.9,2.9l0,0C344.4,117.6,343.1,118.9,341.6,118.9z"/>
<path id="_x30_8:00_Night" class="st4" d="M341.6,125.5h-99.9c-1.6,0-2.9-1.3-2.9-2.9l0,0c0-1.6,1.3-2.9,2.9-2.9h99.9
	c1.6,0,2.9,1.3,2.9,2.9l0,0C344.4,124.2,343.1,125.5,341.6,125.5z"/>
<path id="_x30_8:30_Night" class="st4" d="M341.6,132.4h-99.9c-1.6,0-2.9-1.3-2.9-2.9l0,0c0-1.6,1.3-2.9,2.9-2.9h99.9
	c1.6,0,2.9,1.3,2.9,2.9l0,0C344.4,131.1,343.1,132.4,341.6,132.4z"/>
<path id="_x30_9:00_Night" class="st4" d="M341.6,139h-99.9c-1.6,0-2.9-1.3-2.9-2.9l0,0c0-1.6,1.3-2.9,2.9-2.9h99.9
	c1.6,0,2.9,1.3,2.9,2.9l0,0C344.4,137.7,343.1,139,341.6,139z"/>
<path id="_x30_9:30_Night" class="st4" d="M341.6,145.8h-99.9c-1.6,0-2.9-1.3-2.9-2.9v0c0-1.6,1.3-2.9,2.9-2.9h99.9
	c1.6,0,2.9,1.3,2.9,2.9v0C344.4,144.5,343.1,145.8,341.6,145.8z"/>
<path id="_x31_0:00_Night" class="st4" d="M341.6,152.4h-99.9c-1.6,0-2.9-1.3-2.9-2.9v0c0-1.6,1.3-2.9,2.9-2.9h99.9
	c1.6,0,2.9,1.3,2.9,2.9v0C344.4,151.1,343.1,152.4,341.6,152.4z"/>
<path id="_x31_0:30_Night" class="st4" d="M341.6,159.3h-99.9c-1.6,0-2.9-1.3-2.9-2.9l0,0c0-1.6,1.3-2.9,2.9-2.9h99.9
	c1.6,0,2.9,1.3,2.9,2.9l0,0C344.4,158,343.1,159.3,341.6,159.3z"/>
<path id="_x31_1:00_Night" class="st4" d="M341.6,165.9h-99.9c-1.6,0-2.9-1.3-2.9-2.9v0c0-1.6,1.3-2.9,2.9-2.9h99.9
	c1.6,0,2.9,1.3,2.9,2.9v0C344.4,164.6,343.1,165.9,341.6,165.9z"/>
<path id="_x31_1:30_Night" class="st4" d="M341.6,172.7h-99.9c-1.6,0-2.9-1.3-2.9-2.9l0,0c0-1.6,1.3-2.9,2.9-2.9h99.9
	c1.6,0,2.9,1.3,2.9,2.9l0,0C344.4,171.4,343.1,172.7,341.6,172.7z"/>
<path id="_x31_2:00_Night" class="st4" d="M341.6,179.4h-99.9c-1.6,0-2.9-1.3-2.9-2.9v0c0-1.6,1.3-2.9,2.9-2.9h99.9
	c1.6,0,2.9,1.3,2.9,2.9v0C344.4,178.1,343.1,179.4,341.6,179.4z"/>
<path id="_x31_2:30_Night" class="st4" d="M341.6,186.3h-99.9c-1.6,0-2.9-1.3-2.9-2.9l0,0c0-1.6,1.3-2.9,2.9-2.9h99.9
	c1.6,0,2.9,1.3,2.9,2.9l0,0C344.4,185,343.1,186.3,341.6,186.3z"/>
<path id="_x31_3:00_Night" class="st4" d="M341.6,192.9h-99.9c-1.6,0-2.9-1.3-2.9-2.9v0c0-1.6,1.3-2.9,2.9-2.9h99.9
	c1.6,0,2.9,1.3,2.9,2.9v0C344.4,191.6,343.1,192.9,341.6,192.9z"/>
<path id="_x31_3:30_Night" class="st4" d="M341.6,199.7h-99.9c-1.6,0-2.9-1.3-2.9-2.9l0,0c0-1.6,1.3-2.9,2.9-2.9h99.9
	c1.6,0,2.9,1.3,2.9,2.9l0,0C344.4,198.4,343.1,199.7,341.6,199.7z"/>
<path id="_x31_4:00_Night" class="st4" d="M341.6,206.3h-99.9c-1.6,0-2.9-1.3-2.9-2.9l0,0c0-1.6,1.3-2.9,2.9-2.9h99.9
	c1.6,0,2.9,1.3,2.9,2.9l0,0C344.4,205,343.1,206.3,341.6,206.3z"/>
<path id="_x31_4:30_Night" class="st4" d="M341.6,213.2h-99.9c-1.6,0-2.9-1.3-2.9-2.9l0,0c0-1.6,1.3-2.9,2.9-2.9h99.9
	c1.6,0,2.9,1.3,2.9,2.9l0,0C344.4,211.9,343.1,213.2,341.6,213.2z"/>
<path id="_x31_5:00_Night" class="st4" d="M341.6,219.8h-99.9c-1.6,0-2.9-1.3-2.9-2.9l0,0c0-1.6,1.3-2.9,2.9-2.9h99.9
	c1.6,0,2.9,1.3,2.9,2.9l0,0C344.4,218.5,343.1,219.8,341.6,219.8z"/>
<path id="_x31_5:30_Night" class="st4" d="M341.6,226.6h-99.9c-1.6,0-2.9-1.3-2.9-2.9l0,0c0-1.6,1.3-2.9,2.9-2.9h99.9
	c1.6,0,2.9,1.3,2.9,2.9l0,0C344.4,225.3,343.1,226.6,341.6,226.6z"/>
<path id="_x31_6:00_Night" class="st4" d="M341.6,233.5h-99.9c-1.6,0-2.9-1.3-2.9-2.9l0,0c0-1.6,1.3-2.9,2.9-2.9h99.9
	c1.6,0,2.9,1.3,2.9,2.9l0,0C344.4,232.2,343.1,233.5,341.6,233.5z"/>
<path id="_x31_6:30_Night" class="st4" d="M341.6,240.3h-99.9c-1.6,0-2.9-1.3-2.9-2.9l0,0c0-1.6,1.3-2.9,2.9-2.9h99.9
	c1.6,0,2.9,1.3,2.9,2.9l0,0C344.4,239,343.1,240.3,341.6,240.3z"/>
<path id="_x31_7:00_Night" class="st4" d="M341.6,246.9h-99.9c-1.6,0-2.9-1.3-2.9-2.9l0,0c0-1.6,1.3-2.9,2.9-2.9h99.9
	c1.6,0,2.9,1.3,2.9,2.9l0,0C344.4,245.6,343.1,246.9,341.6,246.9z"/>
<path id="_x31_7:30_Night" class="st4" d="M341.6,253.7h-99.9c-1.6,0-2.9-1.3-2.9-2.9v0c0-1.6,1.3-2.9,2.9-2.9h99.9
	c1.6,0,2.9,1.3,2.9,2.9v0C344.4,252.4,343.1,253.7,341.6,253.7z"/>
<path id="_x31_8:00_Night" class="st4" d="M341.6,260.4h-99.9c-1.6,0-2.9-1.3-2.9-2.9l0,0c0-1.6,1.3-2.9,2.9-2.9h99.9
	c1.6,0,2.9,1.3,2.9,2.9l0,0C344.4,259.1,343.1,260.4,341.6,260.4z"/>
<path id="_x31_8:30_Night" class="st4" d="M341.6,267.2h-99.9c-1.6,0-2.9-1.3-2.9-2.9l0,0c0-1.6,1.3-2.9,2.9-2.9h99.9
	c1.6,0,2.9,1.3,2.9,2.9l0,0C344.4,265.9,343.1,267.2,341.6,267.2z"/>
<path id="_x31_9:00_Night" class="st4" d="M341.6,273.8h-99.9c-1.6,0-2.9-1.3-2.9-2.9l0,0c0-1.6,1.3-2.9,2.9-2.9h99.9
	c1.6,0,2.9,1.3,2.9,2.9l0,0C344.4,272.5,343.1,273.8,341.6,273.8z"/>
<path id="_x31_9:30_Night" class="st4" d="M341.6,280.6h-99.9c-1.6,0-2.9-1.3-2.9-2.9v0c0-1.6,1.3-2.9,2.9-2.9h99.9
	c1.6,0,2.9,1.3,2.9,2.9v0C344.4,279.3,343.1,280.6,341.6,280.6z"/>
<path id="_x32_0:00_Night" class="st4" d="M341.6,287.4h-99.9c-1.6,0-2.9-1.3-2.9-2.9l0,0c0-1.6,1.3-2.9,2.9-2.9h99.9
	c1.6,0,2.9,1.3,2.9,2.9l0,0C344.4,286.1,343.1,287.4,341.6,287.4z"/>
<path id="_x32_0:30_Night" class="st4" d="M341.6,294.2h-99.9c-1.6,0-2.9-1.3-2.9-2.9l0,0c0-1.6,1.3-2.9,2.9-2.9h99.9
	c1.6,0,2.9,1.3,2.9,2.9l0,0C344.4,292.9,343.1,294.2,341.6,294.2z"/>
<path id="_x32_1:00_Night" class="st4" d="M341.6,300.8h-99.9c-1.6,0-2.9-1.3-2.9-2.9l0,0c0-1.6,1.3-2.9,2.9-2.9h99.9
	c1.6,0,2.9,1.3,2.9,2.9l0,0C344.4,299.5,343.1,300.8,341.6,300.8z"/>
<path id="_x32_1:30_Night" class="st4" d="M341.6,307.6h-99.9c-1.6,0-2.9-1.3-2.9-2.9l0,0c0-1.6,1.3-2.9,2.9-2.9h99.9
	c1.6,0,2.9,1.3,2.9,2.9l0,0C344.4,306.3,343.1,307.6,341.6,307.6z"/>
<path id="_x32_2:00_Night" class="st4" d="M341.6,314.3h-99.9c-1.6,0-2.9-1.3-2.9-2.9v0c0-1.6,1.3-2.9,2.9-2.9h99.9
	c1.6,0,2.9,1.3,2.9,2.9v0C344.4,313,343.1,314.3,341.6,314.3z"/>
<path id="_x32_2:30_Night" class="st4" d="M341.6,321.1h-99.9c-1.6,0-2.9-1.3-2.9-2.9l0,0c0-1.6,1.3-2.9,2.9-2.9h99.9
	c1.6,0,2.9,1.3,2.9,2.9l0,0C344.4,319.8,343.1,321.1,341.6,321.1z"/>
<path id="_x32_3:00_Night" class="st4" d="M341.6,327.7h-99.9c-1.6,0-2.9-1.3-2.9-2.9v0c0-1.6,1.3-2.9,2.9-2.9h99.9
	c1.6,0,2.9,1.3,2.9,2.9v0C344.4,326.4,343.1,327.7,341.6,327.7z"/>
<path id="_x32_3:30_Night" class="st4" d="M341.6,334.5h-99.9c-1.6,0-2.9-1.3-2.9-2.9l0,0c0-1.6,1.3-2.9,2.9-2.9h99.9
	c1.6,0,2.9,1.3,2.9,2.9l0,0C344.4,333.2,343.1,334.5,341.6,334.5z"/>
<path id="Frame_4_x2C__SUN" class="st1" d="M450.8,341.3h-86.1c-6.6,0-12-5.4-12-12V16.9c0-6.6,5.4-12,12-12h86.1
	c6.6,0,12,5.4,12,12v312.4C462.8,335.9,457.4,341.3,450.8,341.3z"/>
<path id="_x30_0:00_SUN" class="st5" d="M457.5,17.8h-99.9c-1.6,0-2.9-1.3-2.9-2.9v0c0-1.6,1.3-2.9,2.9-2.9h99.9
	c1.6,0,2.9,1.3,2.9,2.9v0C460.4,16.5,459.1,17.8,457.5,17.8z"/>
<path id="_x30_0:30_SUN" class="st5" d="M457.5,24.6h-99.9c-1.6,0-2.9-1.3-2.9-2.9v0c0-1.6,1.3-2.9,2.9-2.9h99.9
	c1.6,0,2.9,1.3,2.9,2.9v0C460.4,23.3,459.1,24.6,457.5,24.6z"/>
<path id="_x30_1:00_SUN" class="st5" d="M457.5,31.3h-99.9c-1.6,0-2.9-1.3-2.9-2.9v0c0-1.6,1.3-2.9,2.9-2.9h99.9
	c1.6,0,2.9,1.3,2.9,2.9v0C460.4,30,459.1,31.3,457.5,31.3z"/>
<path id="_x30_1:30_SUN" class="st5" d="M457.5,38h-99.9c-1.6,0-2.9-1.3-2.9-2.9v0c0-1.6,1.3-2.9,2.9-2.9h99.9
	c1.6,0,2.9,1.3,2.9,2.9v0C460.4,36.8,459.1,38,457.5,38z"/>
<path id="_x30_2:00_SUN" class="st5" d="M457.5,44.7h-99.9c-1.6,0-2.9-1.3-2.9-2.9v0c0-1.6,1.3-2.9,2.9-2.9h99.9
	c1.6,0,2.9,1.3,2.9,2.9v0C460.4,43.4,459.1,44.7,457.5,44.7z"/>
<path id="_x30_2:30_SUN" class="st5" d="M457.5,51.5h-99.9c-1.6,0-2.9-1.3-2.9-2.9v0c0-1.6,1.3-2.9,2.9-2.9h99.9
	c1.6,0,2.9,1.3,2.9,2.9v0C460.4,50.2,459.1,51.5,457.5,51.5z"/>
<path id="_x30_3:00_SUN" class="st5" d="M457.5,58.2h-99.9c-1.6,0-2.9-1.3-2.9-2.9v0c0-1.6,1.3-2.9,2.9-2.9h99.9
	c1.6,0,2.9,1.3,2.9,2.9v0C460.4,56.9,459.1,58.2,457.5,58.2z"/>
<path id="_x30_3:30_SUN" class="st5" d="M457.5,65h-99.9c-1.6,0-2.9-1.3-2.9-2.9v0c0-1.6,1.3-2.9,2.9-2.9h99.9
	c1.6,0,2.9,1.3,2.9,2.9v0C460.4,63.7,459.1,65,457.5,65z"/>
<path id="_x30_4:00_SUN" class="st5" d="M457.5,71.7h-99.9c-1.6,0-2.9-1.3-2.9-2.9v0c0-1.6,1.3-2.9,2.9-2.9h99.9
	c1.6,0,2.9,1.3,2.9,2.9v0C460.4,70.4,459.1,71.7,457.5,71.7z"/>
<path id="_x30_4:30_SUN" class="st5" d="M457.5,78.5h-99.9c-1.6,0-2.9-1.3-2.9-2.9v0c0-1.6,1.3-2.9,2.9-2.9h99.9
	c1.6,0,2.9,1.3,2.9,2.9v0C460.4,77.2,459.1,78.5,457.5,78.5z"/>
<path id="_x30_5:00_SUN" class="st5" d="M457.5,85.2h-99.9c-1.6,0-2.9-1.3-2.9-2.9v0c0-1.6,1.3-2.9,2.9-2.9h99.9
	c1.6,0,2.9,1.3,2.9,2.9v0C460.4,83.9,459.1,85.2,457.5,85.2z"/>
<path id="_x30_5:30_SUN" class="st5" d="M457.5,92h-99.9c-1.6,0-2.9-1.3-2.9-2.9l0,0c0-1.6,1.3-2.9,2.9-2.9h99.9
	c1.6,0,2.9,1.3,2.9,2.9l0,0C460.4,90.7,459.1,92,457.5,92z"/>
<path id="_x30_6:00_SUN" class="st5" d="M457.5,98.6h-99.9c-1.6,0-2.9-1.3-2.9-2.9v0c0-1.6,1.3-2.9,2.9-2.9h99.9
	c1.6,0,2.9,1.3,2.9,2.9v0C460.4,97.3,459.1,98.6,457.5,98.6z"/>
<path id="_x30_6:30_SUN" class="st5" d="M457.5,105.4h-99.9c-1.6,0-2.9-1.3-2.9-2.9v0c0-1.6,1.3-2.9,2.9-2.9h99.9
	c1.6,0,2.9,1.3,2.9,2.9v0C460.4,104.1,459.1,105.4,457.5,105.4z"/>
<path id="_x30_7:00_SUN" class="st5" d="M457.5,112.1h-99.9c-1.6,0-2.9-1.3-2.9-2.9v0c0-1.6,1.3-2.9,2.9-2.9h99.9
	c1.6,0,2.9,1.3,2.9,2.9v0C460.4,110.8,459.1,112.1,457.5,112.1z"/>
<path id="_x30_7:30_SUN" class="st5" d="M457.5,118.9h-99.9c-1.6,0-2.9-1.3-2.9-2.9l0,0c0-1.6,1.3-2.9,2.9-2.9h99.9
	c1.6,0,2.9,1.3,2.9,2.9l0,0C460.4,117.6,459.1,118.9,457.5,118.9z"/>
<path id="_x30_8:00_SUN" class="st5" d="M457.5,125.5h-99.9c-1.6,0-2.9-1.3-2.9-2.9l0,0c0-1.6,1.3-2.9,2.9-2.9h99.9
	c1.6,0,2.9,1.3,2.9,2.9l0,0C460.4,124.2,459.1,125.5,457.5,125.5z"/>
<path id="_x30_8:30_SUN" class="st5" d="M457.5,132.4h-99.9c-1.6,0-2.9-1.3-2.9-2.9l0,0c0-1.6,1.3-2.9,2.9-2.9h99.9
	c1.6,0,2.9,1.3,2.9,2.9l0,0C460.4,131.1,459.1,132.4,457.5,132.4z"/>
<path id="_x30_9:00_SUN" class="st5" d="M457.5,139h-99.9c-1.6,0-2.9-1.3-2.9-2.9l0,0c0-1.6,1.3-2.9,2.9-2.9h99.9
	c1.6,0,2.9,1.3,2.9,2.9l0,0C460.4,137.7,459.1,139,457.5,139z"/>
<path id="_x30_9:30_SUN" class="st5" d="M457.5,145.8h-99.9c-1.6,0-2.9-1.3-2.9-2.9v0c0-1.6,1.3-2.9,2.9-2.9h99.9
	c1.6,0,2.9,1.3,2.9,2.9v0C460.4,144.5,459.1,145.8,457.5,145.8z"/>
<path id="_x31_0:00_SUN" class="st5" d="M457.5,152.4h-99.9c-1.6,0-2.9-1.3-2.9-2.9v0c0-1.6,1.3-2.9,2.9-2.9h99.9
	c1.6,0,2.9,1.3,2.9,2.9v0C460.4,151.1,459.1,152.4,457.5,152.4z"/>
<path id="_x31_0:30_SUN" class="st5" d="M457.5,159.3h-99.9c-1.6,0-2.9-1.3-2.9-2.9l0,0c0-1.6,1.3-2.9,2.9-2.9h99.9
	c1.6,0,2.9,1.3,2.9,2.9l0,0C460.4,158,459.1,159.3,457.5,159.3z"/>
<path id="_x31_1:00_SUN" class="st5" d="M457.5,165.9h-99.9c-1.6,0-2.9-1.3-2.9-2.9v0c0-1.6,1.3-2.9,2.9-2.9h99.9
	c1.6,0,2.9,1.3,2.9,2.9v0C460.4,164.6,459.1,165.9,457.5,165.9z"/>
<path id="_x31_1:30_SUN" class="st5" d="M457.5,172.7h-99.9c-1.6,0-2.9-1.3-2.9-2.9l0,0c0-1.6,1.3-2.9,2.9-2.9h99.9
	c1.6,0,2.9,1.3,2.9,2.9l0,0C460.4,171.4,459.1,172.7,457.5,172.7z"/>
<path id="_x31_2:00_SUN" class="st5" d="M457.5,179.4h-99.9c-1.6,0-2.9-1.3-2.9-2.9v0c0-1.6,1.3-2.9,2.9-2.9h99.9
	c1.6,0,2.9,1.3,2.9,2.9v0C460.4,178.1,459.1,179.4,457.5,179.4z"/>
<path id="_x31_2:30_SUN" class="st5" d="M457.5,186.3h-99.9c-1.6,0-2.9-1.3-2.9-2.9l0,0c0-1.6,1.3-2.9,2.9-2.9h99.9
	c1.6,0,2.9,1.3,2.9,2.9l0,0C460.4,185,459.1,186.3,457.5,186.3z"/>
<path id="_x31_3:00_SUN" class="st5" d="M457.5,192.9h-99.9c-1.6,0-2.9-1.3-2.9-2.9v0c0-1.6,1.3-2.9,2.9-2.9h99.9
	c1.6,0,2.9,1.3,2.9,2.9v0C460.4,191.6,459.1,192.9,457.5,192.9z"/>
<path id="_x31_3:30_SUN" class="st5" d="M457.5,199.7h-99.9c-1.6,0-2.9-1.3-2.9-2.9l0,0c0-1.6,1.3-2.9,2.9-2.9h99.9
	c1.6,0,2.9,1.3,2.9,2.9l0,0C460.4,198.4,459.1,199.7,457.5,199.7z"/>
<path id="_x31_4:00_SUN" class="st5" d="M457.5,206.3h-99.9c-1.6,0-2.9-1.3-2.9-2.9l0,0c0-1.6,1.3-2.9,2.9-2.9h99.9
	c1.6,0,2.9,1.3,2.9,2.9l0,0C460.4,205,459.1,206.3,457.5,206.3z"/>
<path id="_x31_4:30_SUN" class="st5" d="M457.5,213.2h-99.9c-1.6,0-2.9-1.3-2.9-2.9l0,0c0-1.6,1.3-2.9,2.9-2.9h99.9
	c1.6,0,2.9,1.3,2.9,2.9l0,0C460.4,211.9,459.1,213.2,457.5,213.2z"/>
<path id="_x31_5:00_SUN" class="st5" d="M457.5,219.8h-99.9c-1.6,0-2.9-1.3-2.9-2.9l0,0c0-1.6,1.3-2.9,2.9-2.9h99.9
	c1.6,0,2.9,1.3,2.9,2.9l0,0C460.4,218.5,459.1,219.8,457.5,219.8z"/>
<path id="_x31_5:30_SUN" class="st5" d="M457.5,226.6h-99.9c-1.6,0-2.9-1.3-2.9-2.9l0,0c0-1.6,1.3-2.9,2.9-2.9h99.9
	c1.6,0,2.9,1.3,2.9,2.9l0,0C460.4,225.3,459.1,226.6,457.5,226.6z"/>
<path id="_x31_6:00_SUN" class="st5" d="M457.5,233.5h-99.9c-1.6,0-2.9-1.3-2.9-2.9l0,0c0-1.6,1.3-2.9,2.9-2.9h99.9
	c1.6,0,2.9,1.3,2.9,2.9l0,0C460.4,232.2,459.1,233.5,457.5,233.5z"/>
<path id="_x31_6:30_SUN" class="st5" d="M457.5,240.3h-99.9c-1.6,0-2.9-1.3-2.9-2.9l0,0c0-1.6,1.3-2.9,2.9-2.9h99.9
	c1.6,0,2.9,1.3,2.9,2.9l0,0C460.4,239,459.1,240.3,457.5,240.3z"/>
<path id="_x31_7:00_SUN" class="st5" d="M457.5,246.9h-99.9c-1.6,0-2.9-1.3-2.9-2.9l0,0c0-1.6,1.3-2.9,2.9-2.9h99.9
	c1.6,0,2.9,1.3,2.9,2.9l0,0C460.4,245.6,459.1,246.9,457.5,246.9z"/>
<path id="_x31_7:30_SUN" class="st5" d="M457.5,253.7h-99.9c-1.6,0-2.9-1.3-2.9-2.9v0c0-1.6,1.3-2.9,2.9-2.9h99.9
	c1.6,0,2.9,1.3,2.9,2.9v0C460.4,252.4,459.1,253.7,457.5,253.7z"/>
<path id="_x31_8:00_SUN" class="st5" d="M457.5,260.4h-99.9c-1.6,0-2.9-1.3-2.9-2.9l0,0c0-1.6,1.3-2.9,2.9-2.9h99.9
	c1.6,0,2.9,1.3,2.9,2.9l0,0C460.4,259.1,459.1,260.4,457.5,260.4z"/>
<path id="_x31_8:30_SUN" class="st5" d="M457.5,267.2h-99.9c-1.6,0-2.9-1.3-2.9-2.9l0,0c0-1.6,1.3-2.9,2.9-2.9h99.9
	c1.6,0,2.9,1.3,2.9,2.9l0,0C460.4,265.9,459.1,267.2,457.5,267.2z"/>
<path id="_x31_9:00_SUN" class="st5" d="M457.5,273.8h-99.9c-1.6,0-2.9-1.3-2.9-2.9l0,0c0-1.6,1.3-2.9,2.9-2.9h99.9
	c1.6,0,2.9,1.3,2.9,2.9l0,0C460.4,272.5,459.1,273.8,457.5,273.8z"/>
<path id="_x31_9:30_SUN" class="st5" d="M457.5,280.6h-99.9c-1.6,0-2.9-1.3-2.9-2.9v0c0-1.6,1.3-2.9,2.9-2.9h99.9
	c1.6,0,2.9,1.3,2.9,2.9v0C460.4,279.3,459.1,280.6,457.5,280.6z"/>
<path id="_x32_0:00_SUN" class="st5" d="M457.5,287.4h-99.9c-1.6,0-2.9-1.3-2.9-2.9l0,0c0-1.6,1.3-2.9,2.9-2.9h99.9
	c1.6,0,2.9,1.3,2.9,2.9l0,0C460.4,286.1,459.1,287.4,457.5,287.4z"/>
<path id="_x32_0:30_SUN" class="st5" d="M457.5,294.2h-99.9c-1.6,0-2.9-1.3-2.9-2.9l0,0c0-1.6,1.3-2.9,2.9-2.9h99.9
	c1.6,0,2.9,1.3,2.9,2.9l0,0C460.4,292.9,459.1,294.2,457.5,294.2z"/>
<path id="_x32_1:00_SUN" class="st5" d="M457.5,300.8h-99.9c-1.6,0-2.9-1.3-2.9-2.9l0,0c0-1.6,1.3-2.9,2.9-2.9h99.9
	c1.6,0,2.9,1.3,2.9,2.9l0,0C460.4,299.5,459.1,300.8,457.5,300.8z"/>
<path id="_x32_1:30_SUN" class="st5" d="M457.5,307.6h-99.9c-1.6,0-2.9-1.3-2.9-2.9l0,0c0-1.6,1.3-2.9,2.9-2.9h99.9
	c1.6,0,2.9,1.3,2.9,2.9l0,0C460.4,306.3,459.1,307.6,457.5,307.6z"/>
<path id="_x32_2:00_SUN" class="st5" d="M457.5,314.3h-99.9c-1.6,0-2.9-1.3-2.9-2.9v0c0-1.6,1.3-2.9,2.9-2.9h99.9
	c1.6,0,2.9,1.3,2.9,2.9v0C460.4,313,459.1,314.3,457.5,314.3z"/>
<path id="_x32_2:30_SUN" class="st5" d="M457.5,321.1h-99.9c-1.6,0-2.9-1.3-2.9-2.9l0,0c0-1.6,1.3-2.9,2.9-2.9h99.9
	c1.6,0,2.9,1.3,2.9,2.9l0,0C460.4,319.8,459.1,321.1,457.5,321.1z"/>
<path id="_x32_3:00_SUN" class="st5" d="M457.5,327.7h-99.9c-1.6,0-2.9-1.3-2.9-2.9v0c0-1.6,1.3-2.9,2.9-2.9h99.9
	c1.6,0,2.9,1.3,2.9,2.9v0C460.4,326.4,459.1,327.7,457.5,327.7z"/>
<path id="_x32_3:30_SUN" class="st5" d="M457.5,334.5h-99.9c-1.6,0-2.9-1.3-2.9-2.9l0,0c0-1.6,1.3-2.9,2.9-2.9h99.9
	c1.6,0,2.9,1.3,2.9,2.9l0,0C460.4,333.2,459.1,334.5,457.5,334.5z"/>
</svg>
