<?xml version="1.0" encoding="utf-8"?>
<!-- Generator: Adobe Illustrator 19.1.0, SVG Export Plug-In . SVG Version: 6.00 Build 0)  -->
<svg version="1.1" id="Layer_1" xmlns="http://www.w3.org/2000/svg" xmlns:xlink="http://www.w3.org/1999/xlink" x="0px" y="0px"
	 viewBox="0 0 695.8 348.2" style="enable-background:new 0 0 695.8 348.2;" xml:space="preserve">
<style type="text/css">
	.st0{fill:#FFFFFF;stroke:#000000;stroke-width:2;stroke-miterlimit:10;}
	.st1{stroke:#000000;stroke-miterlimit:10;}
	.st2{fill:#CCCCCC;stroke:#000000;stroke-width:0.5;stroke-miterlimit:10;}
	.st3{fill:#54C6D5;stroke:#000000;stroke-width:0.5;stroke-miterlimit:10;}
	.st4{fill:#3F56A6;stroke:#000000;stroke-width:0.5;stroke-miterlimit:10;}
	.st5{fill:#F2EA18;stroke:#000000;stroke-width:0.5;stroke-miterlimit:10;}
	.st6{fill:#010101;stroke:#010101;stroke-miterlimit:10;}
	.st7{fill:#FFFFFF;}
	.st8{font-family:'NewsGothicMT-Bold';}
	.st9{font-size:13px;}
</style>
<path id="Big_Frame" class="st0" d="M568.9,347.2H126.6c-6.6,0-12-5.4-12-12V13c0-6.6,5.4-12,12-12h442.4c6.6,0,12,5.4,12,12v322.2
	C580.9,341.8,575.5,347.2,568.9,347.2z"/>
<path id="Frame_1_x2C__CLOUDS" class="st1" d="M216.4,341.3h-86.1c-6.6,0-12-5.4-12-12V16.9c0-6.6,5.4-12,12-12h86.1
	c6.6,0,12,5.4,12,12v312.4C228.4,335.9,223,341.3,216.4,341.3z"/>
<path id="_x30_0:00_Clouds" class="st2" d="M223.2,17.8h-99.9c-1.6,0-2.9-1.3-2.9-2.9v0c0-1.6,1.3-2.9,2.9-2.9h99.9
	c1.6,0,2.9,1.3,2.9,2.9v0C226.1,16.5,224.8,17.8,223.2,17.8z"/>
<path id="_x30_0:30_Clouds" class="st2" d="M223.2,24.6h-99.9c-1.6,0-2.9-1.3-2.9-2.9v0c0-1.6,1.3-2.9,2.9-2.9h99.9
	c1.6,0,2.9,1.3,2.9,2.9v0C226.1,23.3,224.8,24.6,223.2,24.6z"/>
<path id="_x30_1:00_Clouds" class="st2" d="M223.2,31.3h-99.9c-1.6,0-2.9-1.3-2.9-2.9v0c0-1.6,1.3-2.9,2.9-2.9h99.9
	c1.6,0,2.9,1.3,2.9,2.9v0C226.1,30,224.8,31.3,223.2,31.3z"/>
<path id="_x30_1:30_Clouds" class="st2" d="M223.2,38h-99.9c-1.6,0-2.9-1.3-2.9-2.9v0c0-1.6,1.3-2.9,2.9-2.9h99.9
	c1.6,0,2.9,1.3,2.9,2.9v0C226.1,36.8,224.8,38,223.2,38z"/>
<path id="_x30_2:00_Clouds" class="st2" d="M223.2,44.7h-99.9c-1.6,0-2.9-1.3-2.9-2.9v0c0-1.6,1.3-2.9,2.9-2.9h99.9
	c1.6,0,2.9,1.3,2.9,2.9v0C226.1,43.4,224.8,44.7,223.2,44.7z"/>
<path id="_x30_2:30_Clouds" class="st2" d="M223.2,51.5h-99.9c-1.6,0-2.9-1.3-2.9-2.9v0c0-1.6,1.3-2.9,2.9-2.9h99.9
	c1.6,0,2.9,1.3,2.9,2.9v0C226.1,50.2,224.8,51.5,223.2,51.5z"/>
<path id="_x30_3:00_Clouds" class="st2" d="M223.2,58.2h-99.9c-1.6,0-2.9-1.3-2.9-2.9v0c0-1.6,1.3-2.9,2.9-2.9h99.9
	c1.6,0,2.9,1.3,2.9,2.9v0C226.1,56.9,224.8,58.2,223.2,58.2z"/>
<path id="_x30_3:30_Clouds" class="st2" d="M223.2,65h-99.9c-1.6,0-2.9-1.3-2.9-2.9v0c0-1.6,1.3-2.9,2.9-2.9h99.9
	c1.6,0,2.9,1.3,2.9,2.9v0C226.1,63.7,224.8,65,223.2,65z"/>
<path id="_x30_4:00_Clouds" class="st2" d="M223.2,71.7h-99.9c-1.6,0-2.9-1.3-2.9-2.9v0c0-1.6,1.3-2.9,2.9-2.9h99.9
	c1.6,0,2.9,1.3,2.9,2.9v0C226.1,70.4,224.8,71.7,223.2,71.7z"/>
<path id="_x30_4:30_Clouds" class="st2" d="M223.2,78.5h-99.9c-1.6,0-2.9-1.3-2.9-2.9v0c0-1.6,1.3-2.9,2.9-2.9h99.9
	c1.6,0,2.9,1.3,2.9,2.9v0C226.1,77.2,224.8,78.5,223.2,78.5z"/>
<path id="_x30_5:00_Clouds" class="st2" d="M223.2,85.2h-99.9c-1.6,0-2.9-1.3-2.9-2.9v0c0-1.6,1.3-2.9,2.9-2.9h99.9
	c1.6,0,2.9,1.3,2.9,2.9v0C226.1,83.9,224.8,85.2,223.2,85.2z"/>
<path id="_x30_5:30_Clouds" class="st2" d="M223.2,92h-99.9c-1.6,0-2.9-1.3-2.9-2.9l0,0c0-1.6,1.3-2.9,2.9-2.9h99.9
	c1.6,0,2.9,1.3,2.9,2.9l0,0C226.1,90.7,224.8,92,223.2,92z"/>
<path id="_x30_6:00_Clouds" class="st2" d="M223.2,98.6h-99.9c-1.6,0-2.9-1.3-2.9-2.9v0c0-1.6,1.3-2.9,2.9-2.9h99.9
	c1.6,0,2.9,1.3,2.9,2.9v0C226.1,97.3,224.8,98.6,223.2,98.6z"/>
<path id="_x30_6:30_Clouds" class="st2" d="M223.2,105.4h-99.9c-1.6,0-2.9-1.3-2.9-2.9v0c0-1.6,1.3-2.9,2.9-2.9h99.9
	c1.6,0,2.9,1.3,2.9,2.9v0C226.1,104.1,224.8,105.4,223.2,105.4z"/>
<path id="_x30_7:00_Clouds" class="st2" d="M223.2,112.1h-99.9c-1.6,0-2.9-1.3-2.9-2.9v0c0-1.6,1.3-2.9,2.9-2.9h99.9
	c1.6,0,2.9,1.3,2.9,2.9v0C226.1,110.8,224.8,112.1,223.2,112.1z"/>
<path id="_x30_7:30_Clouds" class="st2" d="M223.2,118.9h-99.9c-1.6,0-2.9-1.3-2.9-2.9l0,0c0-1.6,1.3-2.9,2.9-2.9h99.9
	c1.6,0,2.9,1.3,2.9,2.9l0,0C226.1,117.6,224.8,118.9,223.2,118.9z"/>
<path id="_x30_8:00_Clouds" class="st2" d="M223.2,125.5h-99.9c-1.6,0-2.9-1.3-2.9-2.9l0,0c0-1.6,1.3-2.9,2.9-2.9h99.9
	c1.6,0,2.9,1.3,2.9,2.9l0,0C226.1,124.2,224.8,125.5,223.2,125.5z"/>
<path id="_x30_8:30_Clouds" class="st2" d="M223.2,132.4h-99.9c-1.6,0-2.9-1.3-2.9-2.9l0,0c0-1.6,1.3-2.9,2.9-2.9h99.9
	c1.6,0,2.9,1.3,2.9,2.9l0,0C226.1,131.1,224.8,132.4,223.2,132.4z"/>
<path id="_x30_9:00_Clouds" class="st2" d="M223.2,139h-99.9c-1.6,0-2.9-1.3-2.9-2.9l0,0c0-1.6,1.3-2.9,2.9-2.9h99.9
	c1.6,0,2.9,1.3,2.9,2.9l0,0C226.1,137.7,224.8,139,223.2,139z"/>
<path id="_x30_9:30_Clouds" class="st2" d="M223.2,145.8h-99.9c-1.6,0-2.9-1.3-2.9-2.9v0c0-1.6,1.3-2.9,2.9-2.9h99.9
	c1.6,0,2.9,1.3,2.9,2.9v0C226.1,144.5,224.8,145.8,223.2,145.8z"/>
<path id="_x31_0:00_Clouds" class="st2" d="M223.2,152.4h-99.9c-1.6,0-2.9-1.3-2.9-2.9v0c0-1.6,1.3-2.9,2.9-2.9h99.9
	c1.6,0,2.9,1.3,2.9,2.9v0C226.1,151.1,224.8,152.4,223.2,152.4z"/>
<path id="_x31_0:30_Clouds" class="st2" d="M223.2,159.3h-99.9c-1.6,0-2.9-1.3-2.9-2.9l0,0c0-1.6,1.3-2.9,2.9-2.9h99.9
	c1.6,0,2.9,1.3,2.9,2.9l0,0C226.1,158,224.8,159.3,223.2,159.3z"/>
<path id="_x31_1:00_Clouds" class="st2" d="M223.2,165.9h-99.9c-1.6,0-2.9-1.3-2.9-2.9v0c0-1.6,1.3-2.9,2.9-2.9h99.9
	c1.6,0,2.9,1.3,2.9,2.9v0C226.1,164.6,224.8,165.9,223.2,165.9z"/>
<path id="_x31_1:30_Clouds" class="st2" d="M223.2,172.7h-99.9c-1.6,0-2.9-1.3-2.9-2.9l0,0c0-1.6,1.3-2.9,2.9-2.9h99.9
	c1.6,0,2.9,1.3,2.9,2.9l0,0C226.1,171.4,224.8,172.7,223.2,172.7z"/>
<path id="_x31_2:00_Clouds" class="st2" d="M223.2,179.4h-99.9c-1.6,0-2.9-1.3-2.9-2.9v0c0-1.6,1.3-2.9,2.9-2.9h99.9
	c1.6,0,2.9,1.3,2.9,2.9v0C226.1,178.1,224.8,179.4,223.2,179.4z"/>
<path id="_x31_2:30_Clouds" class="st2" d="M223.2,186.3h-99.9c-1.6,0-2.9-1.3-2.9-2.9l0,0c0-1.6,1.3-2.9,2.9-2.9h99.9
	c1.6,0,2.9,1.3,2.9,2.9l0,0C226.1,185,224.8,186.3,223.2,186.3z"/>
<path id="_x31_3:00_Clouds" class="st2" d="M223.2,192.9h-99.9c-1.6,0-2.9-1.3-2.9-2.9v0c0-1.6,1.3-2.9,2.9-2.9h99.9
	c1.6,0,2.9,1.3,2.9,2.9v0C226.1,191.6,224.8,192.9,223.2,192.9z"/>
<path id="_x31_3:30_Clouds" class="st2" d="M223.2,199.7h-99.9c-1.6,0-2.9-1.3-2.9-2.9l0,0c0-1.6,1.3-2.9,2.9-2.9h99.9
	c1.6,0,2.9,1.3,2.9,2.9l0,0C226.1,198.4,224.8,199.7,223.2,199.7z"/>
<path id="_x31_4:00_Clouds" class="st2" d="M223.2,206.3h-99.9c-1.6,0-2.9-1.3-2.9-2.9l0,0c0-1.6,1.3-2.9,2.9-2.9h99.9
	c1.6,0,2.9,1.3,2.9,2.9l0,0C226.1,205,224.8,206.3,223.2,206.3z"/>
<path id="_x31_4:30_Clouds" class="st2" d="M223.2,213.2h-99.9c-1.6,0-2.9-1.3-2.9-2.9l0,0c0-1.6,1.3-2.9,2.9-2.9h99.9
	c1.6,0,2.9,1.3,2.9,2.9l0,0C226.1,211.9,224.8,213.2,223.2,213.2z"/>
<path id="_x31_5:00_Clouds" class="st2" d="M223.2,219.8h-99.9c-1.6,0-2.9-1.3-2.9-2.9l0,0c0-1.6,1.3-2.9,2.9-2.9h99.9
	c1.6,0,2.9,1.3,2.9,2.9l0,0C226.1,218.5,224.8,219.8,223.2,219.8z"/>
<path id="_x31_5:30_Clouds" class="st2" d="M223.2,226.6h-99.9c-1.6,0-2.9-1.3-2.9-2.9l0,0c0-1.6,1.3-2.9,2.9-2.9h99.9
	c1.6,0,2.9,1.3,2.9,2.9l0,0C226.1,225.3,224.8,226.6,223.2,226.6z"/>
<path id="_x31_6:00_Clouds" class="st2" d="M223.2,233.5h-99.9c-1.6,0-2.9-1.3-2.9-2.9l0,0c0-1.6,1.3-2.9,2.9-2.9h99.9
	c1.6,0,2.9,1.3,2.9,2.9l0,0C226.1,232.2,224.8,233.5,223.2,233.5z"/>
<path id="_x31_6:30_Clouds" class="st2" d="M223.2,240.3h-99.9c-1.6,0-2.9-1.3-2.9-2.9l0,0c0-1.6,1.3-2.9,2.9-2.9h99.9
	c1.6,0,2.9,1.3,2.9,2.9l0,0C226.1,239,224.8,240.3,223.2,240.3z"/>
<path id="_x31_7:00_Clouds" class="st2" d="M223.2,246.9h-99.9c-1.6,0-2.9-1.3-2.9-2.9l0,0c0-1.6,1.3-2.9,2.9-2.9h99.9
	c1.6,0,2.9,1.3,2.9,2.9l0,0C226.1,245.6,224.8,246.9,223.2,246.9z"/>
<path id="_x31_7:30_Clouds" class="st2" d="M223.2,253.7h-99.9c-1.6,0-2.9-1.3-2.9-2.9v0c0-1.6,1.3-2.9,2.9-2.9h99.9
	c1.6,0,2.9,1.3,2.9,2.9v0C226.1,252.4,224.8,253.7,223.2,253.7z"/>
<path id="_x31_8:00_Clouds" class="st2" d="M223.2,260.4h-99.9c-1.6,0-2.9-1.3-2.9-2.9l0,0c0-1.6,1.3-2.9,2.9-2.9h99.9
	c1.6,0,2.9,1.3,2.9,2.9l0,0C226.1,259.1,224.8,260.4,223.2,260.4z"/>
<path id="_x31_8:30_Clouds" class="st2" d="M223.2,267.2h-99.9c-1.6,0-2.9-1.3-2.9-2.9l0,0c0-1.6,1.3-2.9,2.9-2.9h99.9
	c1.6,0,2.9,1.3,2.9,2.9l0,0C226.1,265.9,224.8,267.2,223.2,267.2z"/>
<path id="_x31_9:00_Clouds" class="st2" d="M223.2,273.8h-99.9c-1.6,0-2.9-1.3-2.9-2.9l0,0c0-1.6,1.3-2.9,2.9-2.9h99.9
	c1.6,0,2.9,1.3,2.9,2.9l0,0C226.1,272.5,224.8,273.8,223.2,273.8z"/>
<path id="_x31_9:30_Clouds" class="st2" d="M223.2,280.6h-99.9c-1.6,0-2.9-1.3-2.9-2.9v0c0-1.6,1.3-2.9,2.9-2.9h99.9
	c1.6,0,2.9,1.3,2.9,2.9v0C226.1,279.3,224.8,280.6,223.2,280.6z"/>
<path id="_x32_0:00_Clouds" class="st2" d="M223.2,287.4h-99.9c-1.6,0-2.9-1.3-2.9-2.9l0,0c0-1.6,1.3-2.9,2.9-2.9h99.9
	c1.6,0,2.9,1.3,2.9,2.9l0,0C226.1,286.1,224.8,287.4,223.2,287.4z"/>
<path id="_x32_0:30_Clouds" class="st2" d="M223.2,294.2h-99.9c-1.6,0-2.9-1.3-2.9-2.9l0,0c0-1.6,1.3-2.9,2.9-2.9h99.9
	c1.6,0,2.9,1.3,2.9,2.9l0,0C226.1,292.9,224.8,294.2,223.2,294.2z"/>
<path id="_x32_1:00_Clouds" class="st2" d="M223.2,300.8h-99.9c-1.6,0-2.9-1.3-2.9-2.9l0,0c0-1.6,1.3-2.9,2.9-2.9h99.9
	c1.6,0,2.9,1.3,2.9,2.9l0,0C226.1,299.5,224.8,300.8,223.2,300.8z"/>
<path id="_x32_1:30_Clouds" class="st2" d="M223.2,307.6h-99.9c-1.6,0-2.9-1.3-2.9-2.9l0,0c0-1.6,1.3-2.9,2.9-2.9h99.9
	c1.6,0,2.9,1.3,2.9,2.9l0,0C226.1,306.3,224.8,307.6,223.2,307.6z"/>
<path id="_x32_2:00_Clouds" class="st2" d="M223.2,314.3h-99.9c-1.6,0-2.9-1.3-2.9-2.9v0c0-1.6,1.3-2.9,2.9-2.9h99.9
	c1.6,0,2.9,1.3,2.9,2.9v0C226.1,313,224.8,314.3,223.2,314.3z"/>
<path id="_x32_2:30_Clouds" class="st2" d="M223.2,321.1h-99.9c-1.6,0-2.9-1.3-2.9-2.9l0,0c0-1.6,1.3-2.9,2.9-2.9h99.9
	c1.6,0,2.9,1.3,2.9,2.9l0,0C226.1,319.8,224.8,321.1,223.2,321.1z"/>
<path id="_x32_3:00_Clouds" class="st2" d="M223.2,327.7h-99.9c-1.6,0-2.9-1.3-2.9-2.9v0c0-1.6,1.3-2.9,2.9-2.9h99.9
	c1.6,0,2.9,1.3,2.9,2.9v0C226.1,326.4,224.8,327.7,223.2,327.7z"/>
<path id="_x32_3:30_Clouds" class="st2" d="M223.2,334.5h-99.9c-1.6,0-2.9-1.3-2.9-2.9l0,0c0-1.6,1.3-2.9,2.9-2.9h99.9
	c1.6,0,2.9,1.3,2.9,2.9l0,0C226.1,333.2,224.8,334.5,223.2,334.5z"/>
<path id="Frame_2_WATER" class="st1" d="M332.5,341.3h-86.1c-6.6,0-12-5.4-12-12V16.9c0-6.6,5.4-12,12-12h86.1c6.6,0,12,5.4,12,12
	v312.4C344.5,335.9,339.1,341.3,332.5,341.3z"/>
<path id="_x30_0:00_Water" class="st3" d="M339.2,17.8h-99.9c-1.6,0-2.9-1.3-2.9-2.9v0c0-1.6,1.3-2.9,2.9-2.9h99.9
	c1.6,0,2.9,1.3,2.9,2.9v0C342.1,16.5,340.8,17.8,339.2,17.8z"/>
<path id="_x30_0:30_Water" class="st3" d="M339.2,24.6h-99.9c-1.6,0-2.9-1.3-2.9-2.9v0c0-1.6,1.3-2.9,2.9-2.9h99.9
	c1.6,0,2.9,1.3,2.9,2.9v0C342.1,23.3,340.8,24.6,339.2,24.6z"/>
<path id="_x30_1:00_Water" class="st3" d="M339.2,31.3h-99.9c-1.6,0-2.9-1.3-2.9-2.9v0c0-1.6,1.3-2.9,2.9-2.9h99.9
	c1.6,0,2.9,1.3,2.9,2.9v0C342.1,30,340.8,31.3,339.2,31.3z"/>
<path id="_x30_1:30_Water" class="st3" d="M339.2,38h-99.9c-1.6,0-2.9-1.3-2.9-2.9v0c0-1.6,1.3-2.9,2.9-2.9h99.9
	c1.6,0,2.9,1.3,2.9,2.9v0C342.1,36.8,340.8,38,339.2,38z"/>
<path id="_x30_2:00_Water" class="st3" d="M339.2,44.7h-99.9c-1.6,0-2.9-1.3-2.9-2.9v0c0-1.6,1.3-2.9,2.9-2.9h99.9
	c1.6,0,2.9,1.3,2.9,2.9v0C342.1,43.4,340.8,44.7,339.2,44.7z"/>
<path id="_x30_2:30_Water" class="st3" d="M339.2,51.5h-99.9c-1.6,0-2.9-1.3-2.9-2.9v0c0-1.6,1.3-2.9,2.9-2.9h99.9
	c1.6,0,2.9,1.3,2.9,2.9v0C342.1,50.2,340.8,51.5,339.2,51.5z"/>
<path id="_x30_3:00_Water" class="st3" d="M339.2,58.2h-99.9c-1.6,0-2.9-1.3-2.9-2.9v0c0-1.6,1.3-2.9,2.9-2.9h99.9
	c1.6,0,2.9,1.3,2.9,2.9v0C342.1,56.9,340.8,58.2,339.2,58.2z"/>
<path id="_x30_3:30_Water" class="st3" d="M339.2,65h-99.9c-1.6,0-2.9-1.3-2.9-2.9v0c0-1.6,1.3-2.9,2.9-2.9h99.9
	c1.6,0,2.9,1.3,2.9,2.9v0C342.1,63.7,340.8,65,339.2,65z"/>
<path id="_x30_4:00_Water" class="st3" d="M339.2,71.7h-99.9c-1.6,0-2.9-1.3-2.9-2.9v0c0-1.6,1.3-2.9,2.9-2.9h99.9
	c1.6,0,2.9,1.3,2.9,2.9v0C342.1,70.4,340.8,71.7,339.2,71.7z"/>
<path id="_x30_4:30_Water" class="st3" d="M339.2,78.5h-99.9c-1.6,0-2.9-1.3-2.9-2.9v0c0-1.6,1.3-2.9,2.9-2.9h99.9
	c1.6,0,2.9,1.3,2.9,2.9v0C342.1,77.2,340.8,78.5,339.2,78.5z"/>
<path id="_x30_5:00_Water" class="st3" d="M339.2,85.2h-99.9c-1.6,0-2.9-1.3-2.9-2.9v0c0-1.6,1.3-2.9,2.9-2.9h99.9
	c1.6,0,2.9,1.3,2.9,2.9v0C342.1,83.9,340.8,85.2,339.2,85.2z"/>
<path id="_x30_5:30_Water" class="st3" d="M339.2,92h-99.9c-1.6,0-2.9-1.3-2.9-2.9l0,0c0-1.6,1.3-2.9,2.9-2.9h99.9
	c1.6,0,2.9,1.3,2.9,2.9l0,0C342.1,90.7,340.8,92,339.2,92z"/>
<path id="_x30_6:00_Water" class="st3" d="M339.2,98.6h-99.9c-1.6,0-2.9-1.3-2.9-2.9v0c0-1.6,1.3-2.9,2.9-2.9h99.9
	c1.6,0,2.9,1.3,2.9,2.9v0C342.1,97.3,340.8,98.6,339.2,98.6z"/>
<path id="_x30_6:30_Water" class="st3" d="M339.2,105.4h-99.9c-1.6,0-2.9-1.3-2.9-2.9v0c0-1.6,1.3-2.9,2.9-2.9h99.9
	c1.6,0,2.9,1.3,2.9,2.9v0C342.1,104.1,340.8,105.4,339.2,105.4z"/>
<path id="_x30_7:00_Water" class="st3" d="M339.2,112.1h-99.9c-1.6,0-2.9-1.3-2.9-2.9v0c0-1.6,1.3-2.9,2.9-2.9h99.9
	c1.6,0,2.9,1.3,2.9,2.9v0C342.1,110.8,340.8,112.1,339.2,112.1z"/>
<path id="_x30_7:30_Water" class="st3" d="M339.2,118.9h-99.9c-1.6,0-2.9-1.3-2.9-2.9l0,0c0-1.6,1.3-2.9,2.9-2.9h99.9
	c1.6,0,2.9,1.3,2.9,2.9l0,0C342.1,117.6,340.8,118.9,339.2,118.9z"/>
<path id="_x30_8:00_Water" class="st3" d="M339.2,125.5h-99.9c-1.6,0-2.9-1.3-2.9-2.9l0,0c0-1.6,1.3-2.9,2.9-2.9h99.9
	c1.6,0,2.9,1.3,2.9,2.9l0,0C342.1,124.2,340.8,125.5,339.2,125.5z"/>
<path id="_x30_8:30_Water" class="st3" d="M339.2,132.4h-99.9c-1.6,0-2.9-1.3-2.9-2.9l0,0c0-1.6,1.3-2.9,2.9-2.9h99.9
	c1.6,0,2.9,1.3,2.9,2.9l0,0C342.1,131.1,340.8,132.4,339.2,132.4z"/>
<path id="_x30_9:00_Water" class="st3" d="M339.2,139h-99.9c-1.6,0-2.9-1.3-2.9-2.9l0,0c0-1.6,1.3-2.9,2.9-2.9h99.9
	c1.6,0,2.9,1.3,2.9,2.9l0,0C342.1,137.7,340.8,139,339.2,139z"/>
<path id="_x30_9:30_Water" class="st3" d="M339.2,145.8h-99.9c-1.6,0-2.9-1.3-2.9-2.9v0c0-1.6,1.3-2.9,2.9-2.9h99.9
	c1.6,0,2.9,1.3,2.9,2.9v0C342.1,144.5,340.8,145.8,339.2,145.8z"/>
<path id="_x31_0:00_Water" class="st3" d="M339.2,152.4h-99.9c-1.6,0-2.9-1.3-2.9-2.9v0c0-1.6,1.3-2.9,2.9-2.9h99.9
	c1.6,0,2.9,1.3,2.9,2.9v0C342.1,151.1,340.8,152.4,339.2,152.4z"/>
<path id="_x31_0:30_Water" class="st3" d="M339.2,159.3h-99.9c-1.6,0-2.9-1.3-2.9-2.9l0,0c0-1.6,1.3-2.9,2.9-2.9h99.9
	c1.6,0,2.9,1.3,2.9,2.9l0,0C342.1,158,340.8,159.3,339.2,159.3z"/>
<path id="_x31_1:00_Water" class="st3" d="M339.2,165.9h-99.9c-1.6,0-2.9-1.3-2.9-2.9v0c0-1.6,1.3-2.9,2.9-2.9h99.9
	c1.6,0,2.9,1.3,2.9,2.9v0C342.1,164.6,340.8,165.9,339.2,165.9z"/>
<path id="_x31_1:30_Water" class="st3" d="M339.2,172.7h-99.9c-1.6,0-2.9-1.3-2.9-2.9l0,0c0-1.6,1.3-2.9,2.9-2.9h99.9
	c1.6,0,2.9,1.3,2.9,2.9l0,0C342.1,171.4,340.8,172.7,339.2,172.7z"/>
<path id="_x31_2:00_Water" class="st3" d="M339.2,179.4h-99.9c-1.6,0-2.9-1.3-2.9-2.9v0c0-1.6,1.3-2.9,2.9-2.9h99.9
	c1.6,0,2.9,1.3,2.9,2.9v0C342.1,178.1,340.8,179.4,339.2,179.4z"/>
<path id="_x31_2:30_Water" class="st3" d="M339.2,186.3h-99.9c-1.6,0-2.9-1.3-2.9-2.9l0,0c0-1.6,1.3-2.9,2.9-2.9h99.9
	c1.6,0,2.9,1.3,2.9,2.9l0,0C342.1,185,340.8,186.3,339.2,186.3z"/>
<path id="_x31_3:00_Water" class="st3" d="M339.2,192.9h-99.9c-1.6,0-2.9-1.3-2.9-2.9v0c0-1.6,1.3-2.9,2.9-2.9h99.9
	c1.6,0,2.9,1.3,2.9,2.9v0C342.1,191.6,340.8,192.9,339.2,192.9z"/>
<path id="_x31_3:30_Water" class="st3" d="M339.2,199.7h-99.9c-1.6,0-2.9-1.3-2.9-2.9l0,0c0-1.6,1.3-2.9,2.9-2.9h99.9
	c1.6,0,2.9,1.3,2.9,2.9l0,0C342.1,198.4,340.8,199.7,339.2,199.7z"/>
<path id="_x31_4:00_Water" class="st3" d="M339.2,206.3h-99.9c-1.6,0-2.9-1.3-2.9-2.9l0,0c0-1.6,1.3-2.9,2.9-2.9h99.9
	c1.6,0,2.9,1.3,2.9,2.9l0,0C342.1,205,340.8,206.3,339.2,206.3z"/>
<path id="_x31_4:30_Water" class="st3" d="M339.2,213.2h-99.9c-1.6,0-2.9-1.3-2.9-2.9l0,0c0-1.6,1.3-2.9,2.9-2.9h99.9
	c1.6,0,2.9,1.3,2.9,2.9l0,0C342.1,211.9,340.8,213.2,339.2,213.2z"/>
<path id="_x31_5:00_Water" class="st3" d="M339.2,219.8h-99.9c-1.6,0-2.9-1.3-2.9-2.9l0,0c0-1.6,1.3-2.9,2.9-2.9h99.9
	c1.6,0,2.9,1.3,2.9,2.9l0,0C342.1,218.5,340.8,219.8,339.2,219.8z"/>
<path id="_x31_5:30_Water" class="st3" d="M339.2,226.6h-99.9c-1.6,0-2.9-1.3-2.9-2.9l0,0c0-1.6,1.3-2.9,2.9-2.9h99.9
	c1.6,0,2.9,1.3,2.9,2.9l0,0C342.1,225.3,340.8,226.6,339.2,226.6z"/>
<path id="_x31_6:00_Water" class="st3" d="M339.2,233.5h-99.9c-1.6,0-2.9-1.3-2.9-2.9l0,0c0-1.6,1.3-2.9,2.9-2.9h99.9
	c1.6,0,2.9,1.3,2.9,2.9l0,0C342.1,232.2,340.8,233.5,339.2,233.5z"/>
<path id="_x31_6:30_Water" class="st3" d="M339.2,240.3h-99.9c-1.6,0-2.9-1.3-2.9-2.9l0,0c0-1.6,1.3-2.9,2.9-2.9h99.9
	c1.6,0,2.9,1.3,2.9,2.9l0,0C342.1,239,340.8,240.3,339.2,240.3z"/>
<path id="_x31_7:00_Water" class="st3" d="M339.2,246.9h-99.9c-1.6,0-2.9-1.3-2.9-2.9l0,0c0-1.6,1.3-2.9,2.9-2.9h99.9
	c1.6,0,2.9,1.3,2.9,2.9l0,0C342.1,245.6,340.8,246.9,339.2,246.9z"/>
<path id="_x31_7:30_Water" class="st3" d="M339.2,253.7h-99.9c-1.6,0-2.9-1.3-2.9-2.9v0c0-1.6,1.3-2.9,2.9-2.9h99.9
	c1.6,0,2.9,1.3,2.9,2.9v0C342.1,252.4,340.8,253.7,339.2,253.7z"/>
<path id="_x31_8:00_Water" class="st3" d="M339.2,260.4h-99.9c-1.6,0-2.9-1.3-2.9-2.9l0,0c0-1.6,1.3-2.9,2.9-2.9h99.9
	c1.6,0,2.9,1.3,2.9,2.9l0,0C342.1,259.1,340.8,260.4,339.2,260.4z"/>
<path id="_x31_8:30_Water" class="st3" d="M339.2,267.2h-99.9c-1.6,0-2.9-1.3-2.9-2.9l0,0c0-1.6,1.3-2.9,2.9-2.9h99.9
	c1.6,0,2.9,1.3,2.9,2.9l0,0C342.1,265.9,340.8,267.2,339.2,267.2z"/>
<path id="_x31_9:00_Water" class="st3" d="M339.2,273.8h-99.9c-1.6,0-2.9-1.3-2.9-2.9l0,0c0-1.6,1.3-2.9,2.9-2.9h99.9
	c1.6,0,2.9,1.3,2.9,2.9l0,0C342.1,272.5,340.8,273.8,339.2,273.8z"/>
<path id="_x31_9:30_Water" class="st3" d="M339.2,280.6h-99.9c-1.6,0-2.9-1.3-2.9-2.9v0c0-1.6,1.3-2.9,2.9-2.9h99.9
	c1.6,0,2.9,1.3,2.9,2.9v0C342.1,279.3,340.8,280.6,339.2,280.6z"/>
<path id="_x32_0:00_Water" class="st3" d="M339.2,287.4h-99.9c-1.6,0-2.9-1.3-2.9-2.9l0,0c0-1.6,1.3-2.9,2.9-2.9h99.9
	c1.6,0,2.9,1.3,2.9,2.9l0,0C342.1,286.1,340.8,287.4,339.2,287.4z"/>
<path id="_x32_0:30_Water" class="st3" d="M339.2,294.2h-99.9c-1.6,0-2.9-1.3-2.9-2.9l0,0c0-1.6,1.3-2.9,2.9-2.9h99.9
	c1.6,0,2.9,1.3,2.9,2.9l0,0C342.1,292.9,340.8,294.2,339.2,294.2z"/>
<path id="_x32_1:00_Water" class="st3" d="M339.2,300.8h-99.9c-1.6,0-2.9-1.3-2.9-2.9l0,0c0-1.6,1.3-2.9,2.9-2.9h99.9
	c1.6,0,2.9,1.3,2.9,2.9l0,0C342.1,299.5,340.8,300.8,339.2,300.8z"/>
<path id="_x32_1:30_Water" class="st3" d="M339.2,307.6h-99.9c-1.6,0-2.9-1.3-2.9-2.9l0,0c0-1.6,1.3-2.9,2.9-2.9h99.9
	c1.6,0,2.9,1.3,2.9,2.9l0,0C342.1,306.3,340.8,307.6,339.2,307.6z"/>
<path id="_x32_2:00_Water" class="st3" d="M339.2,314.3h-99.9c-1.6,0-2.9-1.3-2.9-2.9v0c0-1.6,1.3-2.9,2.9-2.9h99.9
	c1.6,0,2.9,1.3,2.9,2.9v0C342.1,313,340.8,314.3,339.2,314.3z"/>
<path id="_x32_2:30_Water" class="st3" d="M339.2,321.1h-99.9c-1.6,0-2.9-1.3-2.9-2.9l0,0c0-1.6,1.3-2.9,2.9-2.9h99.9
	c1.6,0,2.9,1.3,2.9,2.9l0,0C342.1,319.8,340.8,321.1,339.2,321.1z"/>
<path id="_x32_3:00_Water" class="st3" d="M339.2,327.7h-99.9c-1.6,0-2.9-1.3-2.9-2.9v0c0-1.6,1.3-2.9,2.9-2.9h99.9
	c1.6,0,2.9,1.3,2.9,2.9v0C342.1,326.4,340.8,327.7,339.2,327.7z"/>
<path id="_x32_3:30_Water" class="st3" d="M339.2,334.5h-99.9c-1.6,0-2.9-1.3-2.9-2.9l0,0c0-1.6,1.3-2.9,2.9-2.9h99.9
	c1.6,0,2.9,1.3,2.9,2.9l0,0C342.1,333.2,340.8,334.5,339.2,334.5z"/>
<path id="FRAME_3_x2C__NIGHT" class="st1" d="M448.4,341.3h-86.1c-6.6,0-12-5.4-12-12V16.9c0-6.6,5.4-12,12-12h86.1
	c6.6,0,12,5.4,12,12v312.4C460.4,335.9,455,341.3,448.4,341.3z"/>
<path id="_x30_0:00_Night" class="st4" d="M455.1,17.8h-99.9c-1.6,0-2.9-1.3-2.9-2.9v0c0-1.6,1.3-2.9,2.9-2.9h99.9
	c1.6,0,2.9,1.3,2.9,2.9v0C458,16.5,456.7,17.8,455.1,17.8z"/>
<path id="_x30_0:30_Night" class="st4" d="M455.1,24.6h-99.9c-1.6,0-2.9-1.3-2.9-2.9v0c0-1.6,1.3-2.9,2.9-2.9h99.9
	c1.6,0,2.9,1.3,2.9,2.9v0C458,23.3,456.7,24.6,455.1,24.6z"/>
<path id="_x30_1:00_Night" class="st4" d="M455.1,31.3h-99.9c-1.6,0-2.9-1.3-2.9-2.9v0c0-1.6,1.3-2.9,2.9-2.9h99.9
	c1.6,0,2.9,1.3,2.9,2.9v0C458,30,456.7,31.3,455.1,31.3z"/>
<path id="_x30_1:30_Night" class="st4" d="M455.1,38h-99.9c-1.6,0-2.9-1.3-2.9-2.9v0c0-1.6,1.3-2.9,2.9-2.9h99.9
	c1.6,0,2.9,1.3,2.9,2.9v0C458,36.8,456.7,38,455.1,38z"/>
<path id="_x30_2:00_Night" class="st4" d="M455.1,44.7h-99.9c-1.6,0-2.9-1.3-2.9-2.9v0c0-1.6,1.3-2.9,2.9-2.9h99.9
	c1.6,0,2.9,1.3,2.9,2.9v0C458,43.4,456.7,44.7,455.1,44.7z"/>
<path id="_x30_2:30_Night" class="st4" d="M455.1,51.5h-99.9c-1.6,0-2.9-1.3-2.9-2.9v0c0-1.6,1.3-2.9,2.9-2.9h99.9
	c1.6,0,2.9,1.3,2.9,2.9v0C458,50.2,456.7,51.5,455.1,51.5z"/>
<path id="_x30_3:00_Night" class="st4" d="M455.1,58.2h-99.9c-1.6,0-2.9-1.3-2.9-2.9v0c0-1.6,1.3-2.9,2.9-2.9h99.9
	c1.6,0,2.9,1.3,2.9,2.9v0C458,56.9,456.7,58.2,455.1,58.2z"/>
<path id="_x30_3:30_Night" class="st4" d="M455.1,65h-99.9c-1.6,0-2.9-1.3-2.9-2.9v0c0-1.6,1.3-2.9,2.9-2.9h99.9
	c1.6,0,2.9,1.3,2.9,2.9v0C458,63.7,456.7,65,455.1,65z"/>
<path id="_x30_4:00_Night" class="st4" d="M455.1,71.7h-99.9c-1.6,0-2.9-1.3-2.9-2.9v0c0-1.6,1.3-2.9,2.9-2.9h99.9
	c1.6,0,2.9,1.3,2.9,2.9v0C458,70.4,456.7,71.7,455.1,71.7z"/>
<path id="_x30_4:30_Night" class="st4" d="M455.1,78.5h-99.9c-1.6,0-2.9-1.3-2.9-2.9v0c0-1.6,1.3-2.9,2.9-2.9h99.9
	c1.6,0,2.9,1.3,2.9,2.9v0C458,77.2,456.7,78.5,455.1,78.5z"/>
<path id="_x30_5:00_Night" class="st4" d="M455.1,85.2h-99.9c-1.6,0-2.9-1.3-2.9-2.9v0c0-1.6,1.3-2.9,2.9-2.9h99.9
	c1.6,0,2.9,1.3,2.9,2.9v0C458,83.9,456.7,85.2,455.1,85.2z"/>
<path id="_x30_5:30_Night" class="st4" d="M455.1,92h-99.9c-1.6,0-2.9-1.3-2.9-2.9l0,0c0-1.6,1.3-2.9,2.9-2.9h99.9
	c1.6,0,2.9,1.3,2.9,2.9l0,0C458,90.7,456.7,92,455.1,92z"/>
<path id="_x30_6:00_Night" class="st4" d="M455.1,98.6h-99.9c-1.6,0-2.9-1.3-2.9-2.9v0c0-1.6,1.3-2.9,2.9-2.9h99.9
	c1.6,0,2.9,1.3,2.9,2.9v0C458,97.3,456.7,98.6,455.1,98.6z"/>
<path id="_x30_6:30_Night" class="st4" d="M455.1,105.4h-99.9c-1.6,0-2.9-1.3-2.9-2.9v0c0-1.6,1.3-2.9,2.9-2.9h99.9
	c1.6,0,2.9,1.3,2.9,2.9v0C458,104.1,456.7,105.4,455.1,105.4z"/>
<path id="_x30_7:00_Night" class="st4" d="M455.1,112.1h-99.9c-1.6,0-2.9-1.3-2.9-2.9v0c0-1.6,1.3-2.9,2.9-2.9h99.9
	c1.6,0,2.9,1.3,2.9,2.9v0C458,110.8,456.7,112.1,455.1,112.1z"/>
<path id="_x30_7:30_Night" class="st4" d="M455.1,118.9h-99.9c-1.6,0-2.9-1.3-2.9-2.9l0,0c0-1.6,1.3-2.9,2.9-2.9h99.9
	c1.6,0,2.9,1.3,2.9,2.9l0,0C458,117.6,456.7,118.9,455.1,118.9z"/>
<path id="_x30_8:00_Night" class="st4" d="M455.1,125.5h-99.9c-1.6,0-2.9-1.3-2.9-2.9l0,0c0-1.6,1.3-2.9,2.9-2.9h99.9
	c1.6,0,2.9,1.3,2.9,2.9l0,0C458,124.2,456.7,125.5,455.1,125.5z"/>
<path id="_x30_8:30_Night" class="st4" d="M455.1,132.4h-99.9c-1.6,0-2.9-1.3-2.9-2.9l0,0c0-1.6,1.3-2.9,2.9-2.9h99.9
	c1.6,0,2.9,1.3,2.9,2.9l0,0C458,131.1,456.7,132.4,455.1,132.4z"/>
<path id="_x30_9:00_Night" class="st4" d="M455.1,139h-99.9c-1.6,0-2.9-1.3-2.9-2.9l0,0c0-1.6,1.3-2.9,2.9-2.9h99.9
	c1.6,0,2.9,1.3,2.9,2.9l0,0C458,137.7,456.7,139,455.1,139z"/>
<path id="_x30_9:30_Night" class="st4" d="M455.1,145.8h-99.9c-1.6,0-2.9-1.3-2.9-2.9v0c0-1.6,1.3-2.9,2.9-2.9h99.9
	c1.6,0,2.9,1.3,2.9,2.9v0C458,144.5,456.7,145.8,455.1,145.8z"/>
<path id="_x31_0:00_Night" class="st4" d="M455.1,152.4h-99.9c-1.6,0-2.9-1.3-2.9-2.9v0c0-1.6,1.3-2.9,2.9-2.9h99.9
	c1.6,0,2.9,1.3,2.9,2.9v0C458,151.1,456.7,152.4,455.1,152.4z"/>
<path id="_x31_0:30_Night" class="st4" d="M455.1,159.3h-99.9c-1.6,0-2.9-1.3-2.9-2.9l0,0c0-1.6,1.3-2.9,2.9-2.9h99.9
	c1.6,0,2.9,1.3,2.9,2.9l0,0C458,158,456.7,159.3,455.1,159.3z"/>
<path id="_x31_1:00_Night" class="st4" d="M455.1,165.9h-99.9c-1.6,0-2.9-1.3-2.9-2.9v0c0-1.6,1.3-2.9,2.9-2.9h99.9
	c1.6,0,2.9,1.3,2.9,2.9v0C458,164.6,456.7,165.9,455.1,165.9z"/>
<path id="_x31_1:30_Night" class="st4" d="M455.1,172.7h-99.9c-1.6,0-2.9-1.3-2.9-2.9l0,0c0-1.6,1.3-2.9,2.9-2.9h99.9
	c1.6,0,2.9,1.3,2.9,2.9l0,0C458,171.4,456.7,172.7,455.1,172.7z"/>
<path id="_x31_2:00_Night" class="st4" d="M455.1,179.4h-99.9c-1.6,0-2.9-1.3-2.9-2.9v0c0-1.6,1.3-2.9,2.9-2.9h99.9
	c1.6,0,2.9,1.3,2.9,2.9v0C458,178.1,456.7,179.4,455.1,179.4z"/>
<path id="_x31_2:30_Night" class="st4" d="M455.1,186.3h-99.9c-1.6,0-2.9-1.3-2.9-2.9l0,0c0-1.6,1.3-2.9,2.9-2.9h99.9
	c1.6,0,2.9,1.3,2.9,2.9l0,0C458,185,456.7,186.3,455.1,186.3z"/>
<path id="_x31_3:00_Night" class="st4" d="M455.1,192.9h-99.9c-1.6,0-2.9-1.3-2.9-2.9v0c0-1.6,1.3-2.9,2.9-2.9h99.9
	c1.6,0,2.9,1.3,2.9,2.9v0C458,191.6,456.7,192.9,455.1,192.9z"/>
<path id="_x31_3:30_Night" class="st4" d="M455.1,199.7h-99.9c-1.6,0-2.9-1.3-2.9-2.9l0,0c0-1.6,1.3-2.9,2.9-2.9h99.9
	c1.6,0,2.9,1.3,2.9,2.9l0,0C458,198.4,456.7,199.7,455.1,199.7z"/>
<path id="_x31_4:00_Night" class="st4" d="M455.1,206.3h-99.9c-1.6,0-2.9-1.3-2.9-2.9l0,0c0-1.6,1.3-2.9,2.9-2.9h99.9
	c1.6,0,2.9,1.3,2.9,2.9l0,0C458,205,456.7,206.3,455.1,206.3z"/>
<path id="_x31_4:30_Night" class="st4" d="M455.1,213.2h-99.9c-1.6,0-2.9-1.3-2.9-2.9l0,0c0-1.6,1.3-2.9,2.9-2.9h99.9
	c1.6,0,2.9,1.3,2.9,2.9l0,0C458,211.9,456.7,213.2,455.1,213.2z"/>
<path id="_x31_5:00_Night" class="st4" d="M455.1,219.8h-99.9c-1.6,0-2.9-1.3-2.9-2.9l0,0c0-1.6,1.3-2.9,2.9-2.9h99.9
	c1.6,0,2.9,1.3,2.9,2.9l0,0C458,218.5,456.7,219.8,455.1,219.8z"/>
<path id="_x31_5:30_Night" class="st4" d="M455.1,226.6h-99.9c-1.6,0-2.9-1.3-2.9-2.9l0,0c0-1.6,1.3-2.9,2.9-2.9h99.9
	c1.6,0,2.9,1.3,2.9,2.9l0,0C458,225.3,456.7,226.6,455.1,226.6z"/>
<path id="_x31_6:00_Night" class="st4" d="M455.1,233.5h-99.9c-1.6,0-2.9-1.3-2.9-2.9l0,0c0-1.6,1.3-2.9,2.9-2.9h99.9
	c1.6,0,2.9,1.3,2.9,2.9l0,0C458,232.2,456.7,233.5,455.1,233.5z"/>
<path id="_x31_6:30_Night" class="st4" d="M455.1,240.3h-99.9c-1.6,0-2.9-1.3-2.9-2.9l0,0c0-1.6,1.3-2.9,2.9-2.9h99.9
	c1.6,0,2.9,1.3,2.9,2.9l0,0C458,239,456.7,240.3,455.1,240.3z"/>
<path id="_x31_7:00_Night" class="st4" d="M455.1,246.9h-99.9c-1.6,0-2.9-1.3-2.9-2.9l0,0c0-1.6,1.3-2.9,2.9-2.9h99.9
	c1.6,0,2.9,1.3,2.9,2.9l0,0C458,245.6,456.7,246.9,455.1,246.9z"/>
<path id="_x31_7:30_Night" class="st4" d="M455.1,253.7h-99.9c-1.6,0-2.9-1.3-2.9-2.9v0c0-1.6,1.3-2.9,2.9-2.9h99.9
	c1.6,0,2.9,1.3,2.9,2.9v0C458,252.4,456.7,253.7,455.1,253.7z"/>
<path id="_x31_8:00_Night" class="st4" d="M455.1,260.4h-99.9c-1.6,0-2.9-1.3-2.9-2.9l0,0c0-1.6,1.3-2.9,2.9-2.9h99.9
	c1.6,0,2.9,1.3,2.9,2.9l0,0C458,259.1,456.7,260.4,455.1,260.4z"/>
<path id="_x31_8:30_Night" class="st4" d="M455.1,267.2h-99.9c-1.6,0-2.9-1.3-2.9-2.9l0,0c0-1.6,1.3-2.9,2.9-2.9h99.9
	c1.6,0,2.9,1.3,2.9,2.9l0,0C458,265.9,456.7,267.2,455.1,267.2z"/>
<path id="_x31_9:00_Night" class="st4" d="M455.1,273.8h-99.9c-1.6,0-2.9-1.3-2.9-2.9l0,0c0-1.6,1.3-2.9,2.9-2.9h99.9
	c1.6,0,2.9,1.3,2.9,2.9l0,0C458,272.5,456.7,273.8,455.1,273.8z"/>
<path id="_x31_9:30_Night" class="st4" d="M455.1,280.6h-99.9c-1.6,0-2.9-1.3-2.9-2.9v0c0-1.6,1.3-2.9,2.9-2.9h99.9
	c1.6,0,2.9,1.3,2.9,2.9v0C458,279.3,456.7,280.6,455.1,280.6z"/>
<path id="_x32_0:00_Night" class="st4" d="M455.1,287.4h-99.9c-1.6,0-2.9-1.3-2.9-2.9l0,0c0-1.6,1.3-2.9,2.9-2.9h99.9
	c1.6,0,2.9,1.3,2.9,2.9l0,0C458,286.1,456.7,287.4,455.1,287.4z"/>
<path id="_x32_0:30_Night" class="st4" d="M455.1,294.2h-99.9c-1.6,0-2.9-1.3-2.9-2.9l0,0c0-1.6,1.3-2.9,2.9-2.9h99.9
	c1.6,0,2.9,1.3,2.9,2.9l0,0C458,292.9,456.7,294.2,455.1,294.2z"/>
<path id="_x32_1:00_Night" class="st4" d="M455.1,300.8h-99.9c-1.6,0-2.9-1.3-2.9-2.9l0,0c0-1.6,1.3-2.9,2.9-2.9h99.9
	c1.6,0,2.9,1.3,2.9,2.9l0,0C458,299.5,456.7,300.8,455.1,300.8z"/>
<path id="_x32_1:30_Night" class="st4" d="M455.1,307.6h-99.9c-1.6,0-2.9-1.3-2.9-2.9l0,0c0-1.6,1.3-2.9,2.9-2.9h99.9
	c1.6,0,2.9,1.3,2.9,2.9l0,0C458,306.3,456.7,307.6,455.1,307.6z"/>
<path id="_x32_2:00_Night" class="st4" d="M455.1,314.3h-99.9c-1.6,0-2.9-1.3-2.9-2.9v0c0-1.6,1.3-2.9,2.9-2.9h99.9
	c1.6,0,2.9,1.3,2.9,2.9v0C458,313,456.7,314.3,455.1,314.3z"/>
<path id="_x32_2:30_Night" class="st4" d="M455.1,321.1h-99.9c-1.6,0-2.9-1.3-2.9-2.9l0,0c0-1.6,1.3-2.9,2.9-2.9h99.9
	c1.6,0,2.9,1.3,2.9,2.9l0,0C458,319.8,456.7,321.1,455.1,321.1z"/>
<path id="_x32_3:00_Night" class="st4" d="M455.1,327.7h-99.9c-1.6,0-2.9-1.3-2.9-2.9v0c0-1.6,1.3-2.9,2.9-2.9h99.9
	c1.6,0,2.9,1.3,2.9,2.9v0C458,326.4,456.7,327.7,455.1,327.7z"/>
<path id="_x32_3:30_Night" class="st4" d="M455.1,334.5h-99.9c-1.6,0-2.9-1.3-2.9-2.9l0,0c0-1.6,1.3-2.9,2.9-2.9h99.9
	c1.6,0,2.9,1.3,2.9,2.9l0,0C458,333.2,456.7,334.5,455.1,334.5z"/>
<path id="Frame_4_x2C__SUN" class="st1" d="M564.3,341.3h-86.1c-6.6,0-12-5.4-12-12V16.9c0-6.6,5.4-12,12-12h86.1
	c6.6,0,12,5.4,12,12v312.4C576.3,335.9,570.9,341.3,564.3,341.3z"/>
<path id="_x30_0:00_SUN" class="st5" d="M571.1,17.8h-99.9c-1.6,0-2.9-1.3-2.9-2.9v0c0-1.6,1.3-2.9,2.9-2.9h99.9
	c1.6,0,2.9,1.3,2.9,2.9v0C574,16.5,572.7,17.8,571.1,17.8z"/>
<path id="_x30_0:30_SUN" class="st5" d="M571.1,24.6h-99.9c-1.6,0-2.9-1.3-2.9-2.9v0c0-1.6,1.3-2.9,2.9-2.9h99.9
	c1.6,0,2.9,1.3,2.9,2.9v0C574,23.3,572.7,24.6,571.1,24.6z"/>
<path id="_x30_1:00_SUN" class="st5" d="M571.1,31.3h-99.9c-1.6,0-2.9-1.3-2.9-2.9v0c0-1.6,1.3-2.9,2.9-2.9h99.9
	c1.6,0,2.9,1.3,2.9,2.9v0C574,30,572.7,31.3,571.1,31.3z"/>
<path id="_x30_1:30_SUN" class="st5" d="M571.1,38h-99.9c-1.6,0-2.9-1.3-2.9-2.9v0c0-1.6,1.3-2.9,2.9-2.9h99.9
	c1.6,0,2.9,1.3,2.9,2.9v0C574,36.8,572.7,38,571.1,38z"/>
<path id="_x30_2:00_SUN" class="st5" d="M571.1,44.7h-99.9c-1.6,0-2.9-1.3-2.9-2.9v0c0-1.6,1.3-2.9,2.9-2.9h99.9
	c1.6,0,2.9,1.3,2.9,2.9v0C574,43.4,572.7,44.7,571.1,44.7z"/>
<path id="_x30_2:30_SUN" class="st5" d="M571.1,51.5h-99.9c-1.6,0-2.9-1.3-2.9-2.9v0c0-1.6,1.3-2.9,2.9-2.9h99.9
	c1.6,0,2.9,1.3,2.9,2.9v0C574,50.2,572.7,51.5,571.1,51.5z"/>
<path id="_x30_3:00_SUN" class="st5" d="M571.1,58.2h-99.9c-1.6,0-2.9-1.3-2.9-2.9v0c0-1.6,1.3-2.9,2.9-2.9h99.9
	c1.6,0,2.9,1.3,2.9,2.9v0C574,56.9,572.7,58.2,571.1,58.2z"/>
<path id="_x30_3:30_SUN" class="st5" d="M571.1,65h-99.9c-1.6,0-2.9-1.3-2.9-2.9v0c0-1.6,1.3-2.9,2.9-2.9h99.9
	c1.6,0,2.9,1.3,2.9,2.9v0C574,63.7,572.7,65,571.1,65z"/>
<path id="_x30_4:00_SUN" class="st5" d="M571.1,71.7h-99.9c-1.6,0-2.9-1.3-2.9-2.9v0c0-1.6,1.3-2.9,2.9-2.9h99.9
	c1.6,0,2.9,1.3,2.9,2.9v0C574,70.4,572.7,71.7,571.1,71.7z"/>
<path id="_x30_4:30_SUN" class="st5" d="M571.1,78.5h-99.9c-1.6,0-2.9-1.3-2.9-2.9v0c0-1.6,1.3-2.9,2.9-2.9h99.9
	c1.6,0,2.9,1.3,2.9,2.9v0C574,77.2,572.7,78.5,571.1,78.5z"/>
<path id="_x30_5:00_SUN" class="st5" d="M571.1,85.2h-99.9c-1.6,0-2.9-1.3-2.9-2.9v0c0-1.6,1.3-2.9,2.9-2.9h99.9
	c1.6,0,2.9,1.3,2.9,2.9v0C574,83.9,572.7,85.2,571.1,85.2z"/>
<path id="_x30_5:30_SUN" class="st5" d="M571.1,92h-99.9c-1.6,0-2.9-1.3-2.9-2.9l0,0c0-1.6,1.3-2.9,2.9-2.9h99.9
	c1.6,0,2.9,1.3,2.9,2.9l0,0C574,90.7,572.7,92,571.1,92z"/>
<path id="_x30_6:00_SUN" class="st5" d="M571.1,98.6h-99.9c-1.6,0-2.9-1.3-2.9-2.9v0c0-1.6,1.3-2.9,2.9-2.9h99.9
	c1.6,0,2.9,1.3,2.9,2.9v0C574,97.3,572.7,98.6,571.1,98.6z"/>
<path id="_x30_6:30_SUN" class="st5" d="M571.1,105.4h-99.9c-1.6,0-2.9-1.3-2.9-2.9v0c0-1.6,1.3-2.9,2.9-2.9h99.9
	c1.6,0,2.9,1.3,2.9,2.9v0C574,104.1,572.7,105.4,571.1,105.4z"/>
<path id="_x30_7:00_SUN" class="st5" d="M571.1,112.1h-99.9c-1.6,0-2.9-1.3-2.9-2.9v0c0-1.6,1.3-2.9,2.9-2.9h99.9
	c1.6,0,2.9,1.3,2.9,2.9v0C574,110.8,572.7,112.1,571.1,112.1z"/>
<path id="_x30_7:30_SUN" class="st5" d="M571.1,118.9h-99.9c-1.6,0-2.9-1.3-2.9-2.9l0,0c0-1.6,1.3-2.9,2.9-2.9h99.9
	c1.6,0,2.9,1.3,2.9,2.9l0,0C574,117.6,572.7,118.9,571.1,118.9z"/>
<path id="_x30_8:00_SUN" class="st5" d="M571.1,125.5h-99.9c-1.6,0-2.9-1.3-2.9-2.9l0,0c0-1.6,1.3-2.9,2.9-2.9h99.9
	c1.6,0,2.9,1.3,2.9,2.9l0,0C574,124.2,572.7,125.5,571.1,125.5z"/>
<path id="_x30_8:30_SUN" class="st5" d="M571.1,132.4h-99.9c-1.6,0-2.9-1.3-2.9-2.9l0,0c0-1.6,1.3-2.9,2.9-2.9h99.9
	c1.6,0,2.9,1.3,2.9,2.9l0,0C574,131.1,572.7,132.4,571.1,132.4z"/>
<path id="_x30_9:00_SUN" class="st5" d="M571.1,139h-99.9c-1.6,0-2.9-1.3-2.9-2.9l0,0c0-1.6,1.3-2.9,2.9-2.9h99.9
	c1.6,0,2.9,1.3,2.9,2.9l0,0C574,137.7,572.7,139,571.1,139z"/>
<path id="_x30_9:30_SUN" class="st5" d="M571.1,145.8h-99.9c-1.6,0-2.9-1.3-2.9-2.9v0c0-1.6,1.3-2.9,2.9-2.9h99.9
	c1.6,0,2.9,1.3,2.9,2.9v0C574,144.5,572.7,145.8,571.1,145.8z"/>
<path id="_x31_0:00_SUN" class="st5" d="M571.1,152.4h-99.9c-1.6,0-2.9-1.3-2.9-2.9v0c0-1.6,1.3-2.9,2.9-2.9h99.9
	c1.6,0,2.9,1.3,2.9,2.9v0C574,151.1,572.7,152.4,571.1,152.4z"/>
<path id="_x31_0:30_SUN" class="st5" d="M571.1,159.3h-99.9c-1.6,0-2.9-1.3-2.9-2.9l0,0c0-1.6,1.3-2.9,2.9-2.9h99.9
	c1.6,0,2.9,1.3,2.9,2.9l0,0C574,158,572.7,159.3,571.1,159.3z"/>
<path id="_x31_1:00_SUN" class="st5" d="M571.1,165.9h-99.9c-1.6,0-2.9-1.3-2.9-2.9v0c0-1.6,1.3-2.9,2.9-2.9h99.9
	c1.6,0,2.9,1.3,2.9,2.9v0C574,164.6,572.7,165.9,571.1,165.9z"/>
<path id="_x31_1:30_SUN" class="st5" d="M571.1,172.7h-99.9c-1.6,0-2.9-1.3-2.9-2.9l0,0c0-1.6,1.3-2.9,2.9-2.9h99.9
	c1.6,0,2.9,1.3,2.9,2.9l0,0C574,171.4,572.7,172.7,571.1,172.7z"/>
<path id="_x31_2:00_SUN" class="st5" d="M571.1,179.4h-99.9c-1.6,0-2.9-1.3-2.9-2.9v0c0-1.6,1.3-2.9,2.9-2.9h99.9
	c1.6,0,2.9,1.3,2.9,2.9v0C574,178.1,572.7,179.4,571.1,179.4z"/>
<path id="_x31_2:30_SUN" class="st5" d="M571.1,186.3h-99.9c-1.6,0-2.9-1.3-2.9-2.9l0,0c0-1.6,1.3-2.9,2.9-2.9h99.9
	c1.6,0,2.9,1.3,2.9,2.9l0,0C574,185,572.7,186.3,571.1,186.3z"/>
<path id="_x31_3:00_SUN" class="st5" d="M571.1,192.9h-99.9c-1.6,0-2.9-1.3-2.9-2.9v0c0-1.6,1.3-2.9,2.9-2.9h99.9
	c1.6,0,2.9,1.3,2.9,2.9v0C574,191.6,572.7,192.9,571.1,192.9z"/>
<path id="_x31_3:30_SUN" class="st5" d="M571.1,199.7h-99.9c-1.6,0-2.9-1.3-2.9-2.9l0,0c0-1.6,1.3-2.9,2.9-2.9h99.9
	c1.6,0,2.9,1.3,2.9,2.9l0,0C574,198.4,572.7,199.7,571.1,199.7z"/>
<path id="_x31_4:00_SUN" class="st5" d="M571.1,206.3h-99.9c-1.6,0-2.9-1.3-2.9-2.9l0,0c0-1.6,1.3-2.9,2.9-2.9h99.9
	c1.6,0,2.9,1.3,2.9,2.9l0,0C574,205,572.7,206.3,571.1,206.3z"/>
<path id="_x31_4:30_SUN" class="st5" d="M571.1,213.2h-99.9c-1.6,0-2.9-1.3-2.9-2.9l0,0c0-1.6,1.3-2.9,2.9-2.9h99.9
	c1.6,0,2.9,1.3,2.9,2.9l0,0C574,211.9,572.7,213.2,571.1,213.2z"/>
<path id="_x31_5:00_SUN" class="st5" d="M571.1,219.8h-99.9c-1.6,0-2.9-1.3-2.9-2.9l0,0c0-1.6,1.3-2.9,2.9-2.9h99.9
	c1.6,0,2.9,1.3,2.9,2.9l0,0C574,218.5,572.7,219.8,571.1,219.8z"/>
<path id="_x31_5:30_SUN" class="st5" d="M571.1,226.6h-99.9c-1.6,0-2.9-1.3-2.9-2.9l0,0c0-1.6,1.3-2.9,2.9-2.9h99.9
	c1.6,0,2.9,1.3,2.9,2.9l0,0C574,225.3,572.7,226.6,571.1,226.6z"/>
<path id="_x31_6:00_SUN" class="st5" d="M571.1,233.5h-99.9c-1.6,0-2.9-1.3-2.9-2.9l0,0c0-1.6,1.3-2.9,2.9-2.9h99.9
	c1.6,0,2.9,1.3,2.9,2.9l0,0C574,232.2,572.7,233.5,571.1,233.5z"/>
<path id="_x31_6:30_SUN" class="st5" d="M571.1,240.3h-99.9c-1.6,0-2.9-1.3-2.9-2.9l0,0c0-1.6,1.3-2.9,2.9-2.9h99.9
	c1.6,0,2.9,1.3,2.9,2.9l0,0C574,239,572.7,240.3,571.1,240.3z"/>
<path id="_x31_7:00_SUN" class="st5" d="M571.1,246.9h-99.9c-1.6,0-2.9-1.3-2.9-2.9l0,0c0-1.6,1.3-2.9,2.9-2.9h99.9
	c1.6,0,2.9,1.3,2.9,2.9l0,0C574,245.6,572.7,246.9,571.1,246.9z"/>
<path id="_x31_7:30_SUN" class="st5" d="M571.1,253.7h-99.9c-1.6,0-2.9-1.3-2.9-2.9v0c0-1.6,1.3-2.9,2.9-2.9h99.9
	c1.6,0,2.9,1.3,2.9,2.9v0C574,252.4,572.7,253.7,571.1,253.7z"/>
<path id="_x31_8:00_SUN" class="st5" d="M571.1,260.4h-99.9c-1.6,0-2.9-1.3-2.9-2.9l0,0c0-1.6,1.3-2.9,2.9-2.9h99.9
	c1.6,0,2.9,1.3,2.9,2.9l0,0C574,259.1,572.7,260.4,571.1,260.4z"/>
<path id="_x31_8:30_SUN" class="st5" d="M571.1,267.2h-99.9c-1.6,0-2.9-1.3-2.9-2.9l0,0c0-1.6,1.3-2.9,2.9-2.9h99.9
	c1.6,0,2.9,1.3,2.9,2.9l0,0C574,265.9,572.7,267.2,571.1,267.2z"/>
<path id="_x31_9:00_SUN" class="st5" d="M571.1,273.8h-99.9c-1.6,0-2.9-1.3-2.9-2.9l0,0c0-1.6,1.3-2.9,2.9-2.9h99.9
	c1.6,0,2.9,1.3,2.9,2.9l0,0C574,272.5,572.7,273.8,571.1,273.8z"/>
<path id="_x31_9:30_SUN" class="st5" d="M571.1,280.6h-99.9c-1.6,0-2.9-1.3-2.9-2.9v0c0-1.6,1.3-2.9,2.9-2.9h99.9
	c1.6,0,2.9,1.3,2.9,2.9v0C574,279.3,572.7,280.6,571.1,280.6z"/>
<path id="_x32_0:00_SUN" class="st5" d="M571.1,287.4h-99.9c-1.6,0-2.9-1.3-2.9-2.9l0,0c0-1.6,1.3-2.9,2.9-2.9h99.9
	c1.6,0,2.9,1.3,2.9,2.9l0,0C574,286.1,572.7,287.4,571.1,287.4z"/>
<path id="_x32_0:30_SUN" class="st5" d="M571.1,294.2h-99.9c-1.6,0-2.9-1.3-2.9-2.9l0,0c0-1.6,1.3-2.9,2.9-2.9h99.9
	c1.6,0,2.9,1.3,2.9,2.9l0,0C574,292.9,572.7,294.2,571.1,294.2z"/>
<path id="_x32_1:00_SUN" class="st5" d="M571.1,300.8h-99.9c-1.6,0-2.9-1.3-2.9-2.9l0,0c0-1.6,1.3-2.9,2.9-2.9h99.9
	c1.6,0,2.9,1.3,2.9,2.9l0,0C574,299.5,572.7,300.8,571.1,300.8z"/>
<path id="_x32_1:30_SUN" class="st5" d="M571.1,307.6h-99.9c-1.6,0-2.9-1.3-2.9-2.9l0,0c0-1.6,1.3-2.9,2.9-2.9h99.9
	c1.6,0,2.9,1.3,2.9,2.9l0,0C574,306.3,572.7,307.6,571.1,307.6z"/>
<path id="_x32_2:00_SUN" class="st5" d="M571.1,314.3h-99.9c-1.6,0-2.9-1.3-2.9-2.9v0c0-1.6,1.3-2.9,2.9-2.9h99.9
	c1.6,0,2.9,1.3,2.9,2.9v0C574,313,572.7,314.3,571.1,314.3z"/>
<path id="_x32_2:30_SUN" class="st5" d="M571.1,321.1h-99.9c-1.6,0-2.9-1.3-2.9-2.9l0,0c0-1.6,1.3-2.9,2.9-2.9h99.9
	c1.6,0,2.9,1.3,2.9,2.9l0,0C574,319.8,572.7,321.1,571.1,321.1z"/>
<path id="_x32_3:00_SUN" class="st5" d="M571.1,327.7h-99.9c-1.6,0-2.9-1.3-2.9-2.9v0c0-1.6,1.3-2.9,2.9-2.9h99.9
	c1.6,0,2.9,1.3,2.9,2.9v0C574,326.4,572.7,327.7,571.1,327.7z"/>
<path id="_x32_3:30_SUN" class="st5" d="M571.1,334.5h-99.9c-1.6,0-2.9-1.3-2.9-2.9l0,0c0-1.6,1.3-2.9,2.9-2.9h99.9
	c1.6,0,2.9,1.3,2.9,2.9l0,0C574,333.2,572.7,334.5,571.1,334.5z"/>
<path id="Frame_1_x2C__CLOUDS_1_" class="st6" d="M98.6,341.2H12.5c-6.6,0-12-5.4-12-12V16.8c0-6.6,5.4-12,12-12h86.1
	c6.6,0,12,5.4,12,12v312.4C110.6,335.8,105.2,341.2,98.6,341.2z"/>
<text transform="matrix(1 0 0 1 36.9232 23.2797)" class="st7 st8 st9">00:00</text>
<text transform="matrix(1 0 0 1 36.9232 36.4852)" class="st7 st8 st9">01:00</text>
<text transform="matrix(1 0 0 1 36.9232 50.3195)" class="st7 st8 st9">02:00</text>
<text transform="matrix(1 0 0 1 36.9232 63.525)" class="st7 st8 st9">03:00</text>
<text transform="matrix(1 0 0 1 36.9232 77.3594)" class="st7 st8 st9">04:00</text>
<text transform="matrix(1 0 0 1 36.9232 90.5649)" class="st7 st8 st9">05:00</text>
<text transform="matrix(1 0 0 1 36.9232 104.3993)" class="st7 st8 st9">06:00</text>
<text transform="matrix(1 0 0 1 36.9232 117.6048)" class="st7 st8 st9">07:00</text>
<text transform="matrix(1 0 0 1 36.9232 131.1247)" class="st7 st8 st9">08:00</text>
<text transform="matrix(1 0 0 1 36.9232 144.3302)" class="st7 st8 st9">09:00</text>
<text transform="matrix(1 0 0 1 36.9232 158.1646)" class="st7 st8 st9">10:00</text>
<text transform="matrix(1 0 0 1 36.9232 171.3701)" class="st7 st8 st9">11:00</text>
<text transform="matrix(1 0 0 1 36.9232 185.2045)" class="st7 st8 st9">12:00</text>
<text transform="matrix(1 0 0 1 36.9232 198.41)" class="st7 st8 st9">13:00</text>
<text transform="matrix(1 0 0 1 36.9232 212.2443)" class="st7 st8 st9">14:00</text>
<text transform="matrix(1 0 0 1 36.9232 225.4498)" class="st7 st8 st9">15:00</text>
<text transform="matrix(1 0 0 1 36.9232 238.9698)" class="st7 st8 st9">16:00</text>
<text transform="matrix(1 0 0 1 36.9232 252.1753)" class="st7 st8 st9">17:00</text>
<text transform="matrix(1 0 0 1 36.9232 266.0096)" class="st7 st8 st9">18:00</text>
<text transform="matrix(1 0 0 1 36.9232 279.2152)" class="st7 st8 st9">19:00</text>
<text transform="matrix(1 0 0 1 36.9232 293.0495)" class="st7 st8 st9">20:00</text>
<text transform="matrix(1 0 0 1 36.9232 306.255)" class="st7 st8 st9">21:00</text>
<text transform="matrix(1 0 0 1 36.9232 320.0894)" class="st7 st8 st9">22:00</text>
<text transform="matrix(1 0 0 1 36.9232 333.2949)" class="st7 st8 st9">23:00</text>
<path id="Frame_1_x2C__CLOUDS_2_" class="st6" d="M683.3,341.2h-86.1c-6.6,0-12-5.4-12-12V16.8c0-6.6,5.4-12,12-12h86.1
	c6.6,0,12,5.4,12,12v312.4C695.3,335.8,689.9,341.2,683.3,341.2z"/>
<text transform="matrix(1 0 0 1 621.5912 23.2797)" class="st7 st8 st9">00:00</text>
<text transform="matrix(1 0 0 1 621.5912 36.4852)" class="st7 st8 st9">01:00</text>
<text transform="matrix(1 0 0 1 621.5912 50.3195)" class="st7 st8 st9">02:00</text>
<text transform="matrix(1 0 0 1 621.5912 63.525)" class="st7 st8 st9">03:00</text>
<text transform="matrix(1 0 0 1 621.5912 77.3594)" class="st7 st8 st9">04:00</text>
<text transform="matrix(1 0 0 1 621.5912 90.5649)" class="st7 st8 st9">05:00</text>
<text transform="matrix(1 0 0 1 621.5912 104.3993)" class="st7 st8 st9">06:00</text>
<text transform="matrix(1 0 0 1 621.5912 117.6048)" class="st7 st8 st9">07:00</text>
<text transform="matrix(1 0 0 1 621.5912 131.1247)" class="st7 st8 st9">08:00</text>
<text transform="matrix(1 0 0 1 621.5912 144.3302)" class="st7 st8 st9">09:00</text>
<text transform="matrix(1 0 0 1 621.5912 158.1646)" class="st7 st8 st9">10:00</text>
<text transform="matrix(1 0 0 1 621.5912 171.3701)" class="st7 st8 st9">11:00</text>
<text transform="matrix(1 0 0 1 621.5912 185.2045)" class="st7 st8 st9">12:00</text>
<text transform="matrix(1 0 0 1 621.5912 198.41)" class="st7 st8 st9">13:00</text>
<text transform="matrix(1 0 0 1 621.5912 212.2443)" class="st7 st8 st9">14:00</text>
<text transform="matrix(1 0 0 1 621.5912 225.4498)" class="st7 st8 st9">15:00</text>
<text transform="matrix(1 0 0 1 621.5912 238.9698)" class="st7 st8 st9">16:00</text>
<text transform="matrix(1 0 0 1 621.5912 252.1753)" class="st7 st8 st9">17:00</text>
<text transform="matrix(1 0 0 1 621.5912 266.0096)" class="st7 st8 st9">18:00</text>
<text transform="matrix(1 0 0 1 621.5912 279.2152)" class="st7 st8 st9">19:00</text>
<text transform="matrix(1 0 0 1 621.5912 293.0495)" class="st7 st8 st9">20:00</text>
<text transform="matrix(1 0 0 1 621.5912 306.255)" class="st7 st8 st9">21:00</text>
<text transform="matrix(1 0 0 1 621.5912 320.0894)" class="st7 st8 st9">22:00</text>
<text transform="matrix(1 0 0 1 621.5912 333.2949)" class="st7 st8 st9">23:00</text>
</svg>
