<?xml version="1.0" encoding="utf-8"?>
<!-- Generator: Adobe Illustrator 19.1.0, SVG Export Plug-In . SVG Version: 6.00 Build 0)  -->
<svg version="1.1" id="Layer_1" xmlns="http://www.w3.org/2000/svg" xmlns:xlink="http://www.w3.org/1999/xlink" x="0px" y="0px"
	 viewBox="0 0 55.7 337.4" style="enable-background:new 0 0 55.7 337.4;" xml:space="preserve">
<style type="text/css">
	.st0{stroke:#000000;stroke-miterlimit:10;}
	.st1{fill:#FFFFFF;}
	.st2{font-family:'NewsGothicMT-Bold';}
	.st3{font-size:13px;}
</style>
<path id="Frame_1_x2C__CLOUDS_1_" class="st0" d="M49.3,336.9H6.5c-3.3,0-6-5.4-6-12V12.5c0-6.6,2.7-12,6-12h42.8c3.3,0,6,5.4,6,12
	v312.4C55.2,331.5,52.5,336.9,49.3,336.9z"/>
<text transform="matrix(1 0 0 1 9.5774 18.9729)" class="st1 st2 st3">00:00</text>
<text transform="matrix(1 0 0 1 9.5774 32.1784)" class="st1 st2 st3">01:00</text>
<text transform="matrix(1 0 0 1 9.5774 46.0127)" class="st1 st2 st3">02:00</text>
<text transform="matrix(1 0 0 1 9.5774 59.2182)" class="st1 st2 st3">03:00</text>
<text transform="matrix(1 0 0 1 9.5774 73.0526)" class="st1 st2 st3">04:00</text>
<text transform="matrix(1 0 0 1 9.5774 86.2581)" class="st1 st2 st3">05:00</text>
<text transform="matrix(1 0 0 1 9.5774 100.0925)" class="st1 st2 st3">06:00</text>
<text transform="matrix(1 0 0 1 9.5774 113.298)" class="st1 st2 st3">07:00</text>
<text transform="matrix(1 0 0 1 9.5774 126.8179)" class="st1 st2 st3">08:00</text>
<text transform="matrix(1 0 0 1 9.5774 140.0234)" class="st1 st2 st3">09:00</text>
<text transform="matrix(1 0 0 1 9.5774 153.8578)" class="st1 st2 st3">10:00</text>
<text transform="matrix(1 0 0 1 9.5774 167.0633)" class="st1 st2 st3">11:00</text>
<text transform="matrix(1 0 0 1 9.5774 180.8977)" class="st1 st2 st3">12:00</text>
<text transform="matrix(1 0 0 1 9.5774 194.1032)" class="st1 st2 st3">13:00</text>
<text transform="matrix(1 0 0 1 9.5774 207.9375)" class="st1 st2 st3">14:00</text>
<text transform="matrix(1 0 0 1 9.5774 221.143)" class="st1 st2 st3">15:00</text>
<text transform="matrix(1 0 0 1 9.5774 234.663)" class="st1 st2 st3">16:00</text>
<text transform="matrix(1 0 0 1 9.5774 247.8685)" class="st1 st2 st3">17:00</text>
<text transform="matrix(1 0 0 1 9.5774 261.7028)" class="st1 st2 st3">18:00</text>
<text transform="matrix(1 0 0 1 9.5774 274.9084)" class="st1 st2 st3">19:00</text>
<text transform="matrix(1 0 0 1 9.5774 288.7427)" class="st1 st2 st3">20:00</text>
<text transform="matrix(1 0 0 1 9.5774 301.9482)" class="st1 st2 st3">21:00</text>
<text transform="matrix(1 0 0 1 9.5774 315.7826)" class="st1 st2 st3">22:00</text>
<text transform="matrix(1 0 0 1 9.5774 328.9881)" class="st1 st2 st3">23:00</text>
</svg>
