<?xml version="1.0" encoding="utf-8"?>
<!-- Generator: Adobe Illustrator 19.1.0, SVG Export Plug-In . SVG Version: 6.00 Build 0)  -->
<svg version="1.1" id="Layer_1" xmlns="http://www.w3.org/2000/svg" xmlns:xlink="http://www.w3.org/1999/xlink" x="0px" y="0px"
	 viewBox="0 0 111.1 337.4" style="enable-background:new 0 0 111.1 337.4;" xml:space="preserve">
<style type="text/css">
	.st0{stroke:#000000;stroke-miterlimit:10;}
	.st1{fill:#FFFFFF;}
	.st2{font-family:'NewsGothicMT-Bold';}
	.st3{font-size:13px;}
</style>
<path id="Frame_1_x2C__CLOUDS_1_" class="st0" d="M98.6,336.9H12.5c-6.6,0-12-5.4-12-12V12.5c0-6.6,5.4-12,12-12h86.1
	c6.6,0,12,5.4,12,12v312.4C110.6,331.5,105.2,336.9,98.6,336.9z"/>
<text transform="matrix(1 0 0 1 36.9232 18.9729)" class="st1 st2 st3">00:00</text>
<text transform="matrix(1 0 0 1 36.9232 32.1784)" class="st1 st2 st3">01:00</text>
<text transform="matrix(1 0 0 1 36.9232 46.0127)" class="st1 st2 st3">02:00</text>
<text transform="matrix(1 0 0 1 36.9232 59.2182)" class="st1 st2 st3">03:00</text>
<text transform="matrix(1 0 0 1 36.9232 73.0526)" class="st1 st2 st3">04:00</text>
<text transform="matrix(1 0 0 1 36.9232 86.2581)" class="st1 st2 st3">05:00</text>
<text transform="matrix(1 0 0 1 36.9232 100.0925)" class="st1 st2 st3">06:00</text>
<text transform="matrix(1 0 0 1 36.9232 113.298)" class="st1 st2 st3">07:00</text>
<text transform="matrix(1 0 0 1 36.9232 126.8179)" class="st1 st2 st3">08:00</text>
<text transform="matrix(1 0 0 1 36.9232 140.0234)" class="st1 st2 st3">09:00</text>
<text transform="matrix(1 0 0 1 36.9232 153.8578)" class="st1 st2 st3">10:00</text>
<text transform="matrix(1 0 0 1 36.9232 167.0633)" class="st1 st2 st3">11:00</text>
<text transform="matrix(1 0 0 1 36.9232 180.8977)" class="st1 st2 st3">12:00</text>
<text transform="matrix(1 0 0 1 36.9232 194.1032)" class="st1 st2 st3">13:00</text>
<text transform="matrix(1 0 0 1 36.9232 207.9375)" class="st1 st2 st3">14:00</text>
<text transform="matrix(1 0 0 1 36.9232 221.143)" class="st1 st2 st3">15:00</text>
<text transform="matrix(1 0 0 1 36.9232 234.663)" class="st1 st2 st3">16:00</text>
<text transform="matrix(1 0 0 1 36.9232 247.8685)" class="st1 st2 st3">17:00</text>
<text transform="matrix(1 0 0 1 36.9232 261.7028)" class="st1 st2 st3">18:00</text>
<text transform="matrix(1 0 0 1 36.9232 274.9084)" class="st1 st2 st3">19:00</text>
<text transform="matrix(1 0 0 1 36.9232 288.7427)" class="st1 st2 st3">20:00</text>
<text transform="matrix(1 0 0 1 36.9232 301.9482)" class="st1 st2 st3">21:00</text>
<text transform="matrix(1 0 0 1 36.9232 315.7826)" class="st1 st2 st3">22:00</text>
<text transform="matrix(1 0 0 1 36.9232 328.9881)" class="st1 st2 st3">23:00</text>
</svg>
