<?xml version="1.0" encoding="utf-8"?>
<!-- Generator: Adobe Illustrator 19.1.0, SVG Export Plug-In . SVG Version: 6.00 Build 0)  -->
<svg version="1.1" id="Layer_1" xmlns="http://www.w3.org/2000/svg" xmlns:xlink="http://www.w3.org/1999/xlink" x="0px" y="0px"
	 viewBox="215 -104 1041 1000" style="enable-background:new 215 -104 1041 1000;" xml:space="preserve">
<path d="M291.2,707C240.4,655.8,215,594.3,215,522.7c0-75.8,27.3-139.4,81.9-190.6s120.2-74,196.9-68.1
	c21.7-62.5,59.4-113.1,113.1-151.9s114-58.1,180.6-58.1c85.8,0,159.4,30.4,220.6,91.2s91.9,134.6,91.9,221.2v7.5
	c45.8,11.7,83.3,36,112.5,73.1s43.8,79.8,43.8,128.1c0,57.5-20.4,106.7-61.2,147.5s-90,61.2-147.5,61.2H475
	C403.3,783.9,342.1,758.3,291.2,707z M978.8,471.4l12.5-62.5c3.3-18.3,5-32.5,5-42.5c0-57.5-20.4-106.5-61.2-146.9
	c-40.8-40.4-90-60.6-147.5-60.6c-50.8,0-95.4,16.5-133.8,49.4s-62.1,74.4-71.2,124.4l-8.8,57.5l-56.2-16.2c-15.8-5-30-7.5-42.5-7.5
	c-43.3,0-80.2,15.2-110.6,45.6c-30.4,30.4-45.6,67.3-45.6,110.6s15.2,80.2,45.6,110.6s67.3,45.6,110.6,45.6h572.5
	c29.2,0,54-10.2,74.4-30.6s30.6-44.8,30.6-73.1s-10-52.9-30-73.8c-20-20.8-43.3-31.2-70-31.2L978.8,471.4z"/>
</svg>
