<?xml version="1.0" encoding="utf-8"?>
<!-- Generator: Adobe Illustrator 19.1.0, SVG Export Plug-In . SVG Version: 6.00 Build 0)  -->
<svg version="1.1" id="Layer_1" xmlns="http://www.w3.org/2000/svg" xmlns:xlink="http://www.w3.org/1999/xlink" x="0px" y="0px"
	 viewBox="-49 141 512 512" style="enable-background:new -49 141 512 512;" xml:space="preserve">
<style type="text/css">
	.st0{fill:#FFE600;stroke:#000000;stroke-width:25;stroke-miterlimit:10;}
	.st1{fill:#FF9100;stroke:#000000;stroke-width:14;stroke-miterlimit:10;}
</style>
<path class="st0" d="M326.1,401.5c0,66.6-54,120.7-120.7,120.7c-66.6,0-120.7-54-120.7-120.7s54-120.7,120.7-120.7
	S326.1,334.9,326.1,401.5z"/>
<path class="st1" d="M177.4,242.7l30.3-77.9l26,77.9L177.4,242.7L177.4,242.7z"/>
<path class="st1" d="M177.4,553.3l30.3,77.9l26-77.9H177.4z"/>
<path class="st1" d="M49.7,429.6l-77.9-30.3l77.9-26V429.6z"/>
<path class="st1" d="M360.4,429.6l77.9-30.3l-77.9-26V429.6z"/>
<path class="st1" d="M75.6,307.7l-33.7-76.5l73.4,36.7L75.6,307.7z"/>
<path class="st1" d="M295.3,527.4l76.5,33.6l-36.7-73.4L295.3,527.4z"/>
<path class="st1" d="M117.5,530.2L41,563.8l36.7-73.4L117.5,530.2z"/>
<path class="st1" d="M337.2,310.5l33.6-76.5l-73.4,36.8L337.2,310.5z"/>
</svg>
